%TF.GenerationSoftware,KiCad,Pcbnew,8.0.4*%
%TF.CreationDate,2024-08-23T23:03:49+05:30*%
%TF.ProjectId,Prj 1 - LED torch,50726a20-3120-42d2-904c-454420746f72,0.1*%
%TF.SameCoordinates,Original*%
%TF.FileFunction,Legend,Top*%
%TF.FilePolarity,Positive*%
%FSLAX46Y46*%
G04 Gerber Fmt 4.6, Leading zero omitted, Abs format (unit mm)*
G04 Created by KiCad (PCBNEW 8.0.4) date 2024-08-23 23:03:49*
%MOMM*%
%LPD*%
G01*
G04 APERTURE LIST*
%ADD10C,0.100000*%
%ADD11C,0.150000*%
%ADD12C,0.120000*%
G04 APERTURE END LIST*
D10*
X120603884Y-122691466D02*
X121365789Y-122691466D01*
X120984836Y-123072419D02*
X120984836Y-122310514D01*
X120603884Y-115391466D02*
X121365789Y-115391466D01*
D11*
X127234819Y-119066666D02*
X126758628Y-119399999D01*
X127234819Y-119638094D02*
X126234819Y-119638094D01*
X126234819Y-119638094D02*
X126234819Y-119257142D01*
X126234819Y-119257142D02*
X126282438Y-119161904D01*
X126282438Y-119161904D02*
X126330057Y-119114285D01*
X126330057Y-119114285D02*
X126425295Y-119066666D01*
X126425295Y-119066666D02*
X126568152Y-119066666D01*
X126568152Y-119066666D02*
X126663390Y-119114285D01*
X126663390Y-119114285D02*
X126711009Y-119161904D01*
X126711009Y-119161904D02*
X126758628Y-119257142D01*
X126758628Y-119257142D02*
X126758628Y-119638094D01*
X127234819Y-118114285D02*
X127234819Y-118685713D01*
X127234819Y-118399999D02*
X126234819Y-118399999D01*
X126234819Y-118399999D02*
X126377676Y-118495237D01*
X126377676Y-118495237D02*
X126472914Y-118590475D01*
X126472914Y-118590475D02*
X126520533Y-118685713D01*
X139516667Y-115057200D02*
X139659524Y-115104819D01*
X139659524Y-115104819D02*
X139897619Y-115104819D01*
X139897619Y-115104819D02*
X139992857Y-115057200D01*
X139992857Y-115057200D02*
X140040476Y-115009580D01*
X140040476Y-115009580D02*
X140088095Y-114914342D01*
X140088095Y-114914342D02*
X140088095Y-114819104D01*
X140088095Y-114819104D02*
X140040476Y-114723866D01*
X140040476Y-114723866D02*
X139992857Y-114676247D01*
X139992857Y-114676247D02*
X139897619Y-114628628D01*
X139897619Y-114628628D02*
X139707143Y-114581009D01*
X139707143Y-114581009D02*
X139611905Y-114533390D01*
X139611905Y-114533390D02*
X139564286Y-114485771D01*
X139564286Y-114485771D02*
X139516667Y-114390533D01*
X139516667Y-114390533D02*
X139516667Y-114295295D01*
X139516667Y-114295295D02*
X139564286Y-114200057D01*
X139564286Y-114200057D02*
X139611905Y-114152438D01*
X139611905Y-114152438D02*
X139707143Y-114104819D01*
X139707143Y-114104819D02*
X139945238Y-114104819D01*
X139945238Y-114104819D02*
X140088095Y-114152438D01*
X140421429Y-114104819D02*
X140659524Y-115104819D01*
X140659524Y-115104819D02*
X140850000Y-114390533D01*
X140850000Y-114390533D02*
X141040476Y-115104819D01*
X141040476Y-115104819D02*
X141278572Y-114104819D01*
X142183333Y-115104819D02*
X141611905Y-115104819D01*
X141897619Y-115104819D02*
X141897619Y-114104819D01*
X141897619Y-114104819D02*
X141802381Y-114247676D01*
X141802381Y-114247676D02*
X141707143Y-114342914D01*
X141707143Y-114342914D02*
X141611905Y-114390533D01*
X166164285Y-126451009D02*
X166307142Y-126498628D01*
X166307142Y-126498628D02*
X166354761Y-126546247D01*
X166354761Y-126546247D02*
X166402380Y-126641485D01*
X166402380Y-126641485D02*
X166402380Y-126784342D01*
X166402380Y-126784342D02*
X166354761Y-126879580D01*
X166354761Y-126879580D02*
X166307142Y-126927200D01*
X166307142Y-126927200D02*
X166211904Y-126974819D01*
X166211904Y-126974819D02*
X165830952Y-126974819D01*
X165830952Y-126974819D02*
X165830952Y-125974819D01*
X165830952Y-125974819D02*
X166164285Y-125974819D01*
X166164285Y-125974819D02*
X166259523Y-126022438D01*
X166259523Y-126022438D02*
X166307142Y-126070057D01*
X166307142Y-126070057D02*
X166354761Y-126165295D01*
X166354761Y-126165295D02*
X166354761Y-126260533D01*
X166354761Y-126260533D02*
X166307142Y-126355771D01*
X166307142Y-126355771D02*
X166259523Y-126403390D01*
X166259523Y-126403390D02*
X166164285Y-126451009D01*
X166164285Y-126451009D02*
X165830952Y-126451009D01*
X166688095Y-125974819D02*
X167259523Y-125974819D01*
X166973809Y-126974819D02*
X166973809Y-125974819D01*
X168116666Y-126974819D02*
X167545238Y-126974819D01*
X167830952Y-126974819D02*
X167830952Y-125974819D01*
X167830952Y-125974819D02*
X167735714Y-126117676D01*
X167735714Y-126117676D02*
X167640476Y-126212914D01*
X167640476Y-126212914D02*
X167545238Y-126260533D01*
X125414819Y-119633094D02*
X124414819Y-119633094D01*
X124414819Y-119633094D02*
X124414819Y-119394999D01*
X124414819Y-119394999D02*
X124462438Y-119252142D01*
X124462438Y-119252142D02*
X124557676Y-119156904D01*
X124557676Y-119156904D02*
X124652914Y-119109285D01*
X124652914Y-119109285D02*
X124843390Y-119061666D01*
X124843390Y-119061666D02*
X124986247Y-119061666D01*
X124986247Y-119061666D02*
X125176723Y-119109285D01*
X125176723Y-119109285D02*
X125271961Y-119156904D01*
X125271961Y-119156904D02*
X125367200Y-119252142D01*
X125367200Y-119252142D02*
X125414819Y-119394999D01*
X125414819Y-119394999D02*
X125414819Y-119633094D01*
X125414819Y-118109285D02*
X125414819Y-118680713D01*
X125414819Y-118394999D02*
X124414819Y-118394999D01*
X124414819Y-118394999D02*
X124557676Y-118490237D01*
X124557676Y-118490237D02*
X124652914Y-118585475D01*
X124652914Y-118585475D02*
X124700533Y-118680713D01*
X117494819Y-119537857D02*
X117494819Y-120014047D01*
X117494819Y-120014047D02*
X116494819Y-120014047D01*
X116971009Y-119204523D02*
X116971009Y-118871190D01*
X117494819Y-118728333D02*
X117494819Y-119204523D01*
X117494819Y-119204523D02*
X116494819Y-119204523D01*
X116494819Y-119204523D02*
X116494819Y-118728333D01*
X117494819Y-118299761D02*
X116494819Y-118299761D01*
X116494819Y-118299761D02*
X116494819Y-118061666D01*
X116494819Y-118061666D02*
X116542438Y-117918809D01*
X116542438Y-117918809D02*
X116637676Y-117823571D01*
X116637676Y-117823571D02*
X116732914Y-117775952D01*
X116732914Y-117775952D02*
X116923390Y-117728333D01*
X116923390Y-117728333D02*
X117066247Y-117728333D01*
X117066247Y-117728333D02*
X117256723Y-117775952D01*
X117256723Y-117775952D02*
X117351961Y-117823571D01*
X117351961Y-117823571D02*
X117447200Y-117918809D01*
X117447200Y-117918809D02*
X117494819Y-118061666D01*
X117494819Y-118061666D02*
X117494819Y-118299761D01*
D12*
%TO.C,R1*%
X127780000Y-117070000D02*
X127780000Y-120910000D01*
X127780000Y-120910000D02*
X129620000Y-120910000D01*
X128700000Y-116120000D02*
X128700000Y-117070000D01*
X128700000Y-121860000D02*
X128700000Y-120910000D01*
X129620000Y-117070000D02*
X127780000Y-117070000D01*
X129620000Y-120910000D02*
X129620000Y-117070000D01*
%TO.C,SW1*%
X137730000Y-120100000D02*
X137730000Y-117900000D01*
X138200000Y-122070000D02*
X143400000Y-122070000D01*
X138800000Y-115830000D02*
X143200000Y-115830000D01*
X143970000Y-117900000D02*
X143970000Y-120100000D01*
X142264214Y-118950000D02*
G75*
G02*
X139435786Y-118950000I-1414214J0D01*
G01*
X139435786Y-118950000D02*
G75*
G02*
X142264214Y-118950000I1414214J0D01*
G01*
%TO.C,BT1*%
X152640000Y-115290000D02*
X156258000Y-115290000D01*
X152640000Y-117000000D02*
X152640000Y-115290000D01*
X152640000Y-120800000D02*
X152640000Y-122510000D01*
X156258000Y-122510000D02*
X152640000Y-122510000D01*
X159102700Y-110790000D02*
X174797300Y-110790000D01*
X163090000Y-127010000D02*
X159102700Y-127010000D01*
X165290000Y-124810000D02*
X163090000Y-127010000D01*
X168610000Y-124810000D02*
X165290000Y-124810000D01*
X168610000Y-124810000D02*
X170810000Y-127010000D01*
X174797300Y-127010000D02*
X170810000Y-127010000D01*
X177642000Y-115290000D02*
X181260000Y-115290000D01*
X181260000Y-117000000D02*
X181260000Y-115290000D01*
X181260000Y-120800000D02*
X181260000Y-122510000D01*
X181260000Y-122510000D02*
X177642000Y-122510000D01*
X156258000Y-115290000D02*
G75*
G02*
X159104628Y-110788210I10692020J-3610010D01*
G01*
X159104629Y-127011789D02*
G75*
G02*
X156258000Y-122510000I7845366J8111785D01*
G01*
X174795371Y-110788211D02*
G75*
G02*
X177642000Y-115290000I-7845371J-8111789D01*
G01*
X177642000Y-122510000D02*
G75*
G02*
X174795371Y-127011789I-10692020J3610012D01*
G01*
%TO.C,D1*%
X122545000Y-116335000D02*
X119455000Y-116335000D01*
X121000462Y-121885000D02*
G75*
G02*
X119455170Y-116335000I-462J2990000D01*
G01*
X122544830Y-116335000D02*
G75*
G02*
X120999538Y-121885000I-1544830J-2560000D01*
G01*
X123500000Y-118895000D02*
G75*
G02*
X118500000Y-118895000I-2500000J0D01*
G01*
X118500000Y-118895000D02*
G75*
G02*
X123500000Y-118895000I2500000J0D01*
G01*
%TD*%
M02*
