%TF.GenerationSoftware,KiCad,Pcbnew,8.0.4*%
%TF.CreationDate,2024-08-23T23:03:49+05:30*%
%TF.ProjectId,Prj 1 - LED torch,50726a20-3120-42d2-904c-454420746f72,0.1*%
%TF.SameCoordinates,Original*%
%TF.FileFunction,Legend,Bot*%
%TF.FilePolarity,Positive*%
%FSLAX46Y46*%
G04 Gerber Fmt 4.6, Leading zero omitted, Abs format (unit mm)*
G04 Created by KiCad (PCBNEW 8.0.4) date 2024-08-23 23:03:49*
%MOMM*%
%LPD*%
G01*
G04 APERTURE LIST*
%ADD10C,0.100000*%
%ADD11C,0.010000*%
G04 APERTURE END LIST*
D10*
X168796115Y-126972419D02*
X168796115Y-125972419D01*
X168796115Y-126353371D02*
X168700877Y-126305752D01*
X168700877Y-126305752D02*
X168510401Y-126305752D01*
X168510401Y-126305752D02*
X168415163Y-126353371D01*
X168415163Y-126353371D02*
X168367544Y-126400990D01*
X168367544Y-126400990D02*
X168319925Y-126496228D01*
X168319925Y-126496228D02*
X168319925Y-126781942D01*
X168319925Y-126781942D02*
X168367544Y-126877180D01*
X168367544Y-126877180D02*
X168415163Y-126924800D01*
X168415163Y-126924800D02*
X168510401Y-126972419D01*
X168510401Y-126972419D02*
X168700877Y-126972419D01*
X168700877Y-126972419D02*
X168796115Y-126924800D01*
X167986591Y-126305752D02*
X167748496Y-126972419D01*
X167510401Y-126305752D02*
X167748496Y-126972419D01*
X167748496Y-126972419D02*
X167843734Y-127210514D01*
X167843734Y-127210514D02*
X167891353Y-127258133D01*
X167891353Y-127258133D02*
X167986591Y-127305752D01*
X166367543Y-126972419D02*
X166367543Y-125972419D01*
X165796115Y-126972419D02*
X166224686Y-126400990D01*
X165796115Y-125972419D02*
X166367543Y-126543847D01*
X165367543Y-126972419D02*
X165367543Y-125972419D01*
X165367543Y-125972419D02*
X165129448Y-125972419D01*
X165129448Y-125972419D02*
X164986591Y-126020038D01*
X164986591Y-126020038D02*
X164891353Y-126115276D01*
X164891353Y-126115276D02*
X164843734Y-126210514D01*
X164843734Y-126210514D02*
X164796115Y-126400990D01*
X164796115Y-126400990D02*
X164796115Y-126543847D01*
X164796115Y-126543847D02*
X164843734Y-126734323D01*
X164843734Y-126734323D02*
X164891353Y-126829561D01*
X164891353Y-126829561D02*
X164986591Y-126924800D01*
X164986591Y-126924800D02*
X165129448Y-126972419D01*
X165129448Y-126972419D02*
X165367543Y-126972419D01*
X168838972Y-112572419D02*
X168505639Y-113572419D01*
X168505639Y-113572419D02*
X168172306Y-112572419D01*
X167315163Y-113572419D02*
X167886591Y-113572419D01*
X167600877Y-113572419D02*
X167600877Y-112572419D01*
X167600877Y-112572419D02*
X167696115Y-112715276D01*
X167696115Y-112715276D02*
X167791353Y-112810514D01*
X167791353Y-112810514D02*
X167886591Y-112858133D01*
X166886591Y-113477180D02*
X166838972Y-113524800D01*
X166838972Y-113524800D02*
X166886591Y-113572419D01*
X166886591Y-113572419D02*
X166934210Y-113524800D01*
X166934210Y-113524800D02*
X166886591Y-113477180D01*
X166886591Y-113477180D02*
X166886591Y-113572419D01*
X166219925Y-112572419D02*
X166124687Y-112572419D01*
X166124687Y-112572419D02*
X166029449Y-112620038D01*
X166029449Y-112620038D02*
X165981830Y-112667657D01*
X165981830Y-112667657D02*
X165934211Y-112762895D01*
X165934211Y-112762895D02*
X165886592Y-112953371D01*
X165886592Y-112953371D02*
X165886592Y-113191466D01*
X165886592Y-113191466D02*
X165934211Y-113381942D01*
X165934211Y-113381942D02*
X165981830Y-113477180D01*
X165981830Y-113477180D02*
X166029449Y-113524800D01*
X166029449Y-113524800D02*
X166124687Y-113572419D01*
X166124687Y-113572419D02*
X166219925Y-113572419D01*
X166219925Y-113572419D02*
X166315163Y-113524800D01*
X166315163Y-113524800D02*
X166362782Y-113477180D01*
X166362782Y-113477180D02*
X166410401Y-113381942D01*
X166410401Y-113381942D02*
X166458020Y-113191466D01*
X166458020Y-113191466D02*
X166458020Y-112953371D01*
X166458020Y-112953371D02*
X166410401Y-112762895D01*
X166410401Y-112762895D02*
X166362782Y-112667657D01*
X166362782Y-112667657D02*
X166315163Y-112620038D01*
X166315163Y-112620038D02*
X166219925Y-112572419D01*
D11*
%TO.C,REF1*%
X161307002Y-123214242D02*
X161341247Y-123235142D01*
X161376729Y-123263873D01*
X161376729Y-124125871D01*
X161341247Y-124154602D01*
X161299495Y-124177867D01*
X161251832Y-124178980D01*
X161209976Y-124151696D01*
X161204815Y-124145486D01*
X161197538Y-124132881D01*
X161191937Y-124114666D01*
X161187794Y-124087347D01*
X161184892Y-124047433D01*
X161183014Y-123991430D01*
X161181941Y-123915847D01*
X161181457Y-123817190D01*
X161181344Y-123691966D01*
X161181344Y-123263873D01*
X161216826Y-123235142D01*
X161248396Y-123215477D01*
X161279037Y-123206410D01*
X161307002Y-123214242D01*
G36*
X161307002Y-123214242D02*
G01*
X161341247Y-123235142D01*
X161376729Y-123263873D01*
X161376729Y-124125871D01*
X161341247Y-124154602D01*
X161299495Y-124177867D01*
X161251832Y-124178980D01*
X161209976Y-124151696D01*
X161204815Y-124145486D01*
X161197538Y-124132881D01*
X161191937Y-124114666D01*
X161187794Y-124087347D01*
X161184892Y-124047433D01*
X161183014Y-123991430D01*
X161181941Y-123915847D01*
X161181457Y-123817190D01*
X161181344Y-123691966D01*
X161181344Y-123263873D01*
X161216826Y-123235142D01*
X161248396Y-123215477D01*
X161279037Y-123206410D01*
X161307002Y-123214242D01*
G37*
X170800579Y-123212264D02*
X170846051Y-123243301D01*
X170882942Y-123280192D01*
X170882942Y-123696978D01*
X170882887Y-123808852D01*
X170882543Y-123907668D01*
X170881650Y-123983226D01*
X170879949Y-124039104D01*
X170877181Y-124078882D01*
X170873088Y-124106136D01*
X170867409Y-124124447D01*
X170859888Y-124137391D01*
X170850263Y-124148548D01*
X170808374Y-124177125D01*
X170761556Y-124179476D01*
X170717617Y-124153274D01*
X170710551Y-124145461D01*
X170703296Y-124133367D01*
X170697750Y-124115605D01*
X170693683Y-124088690D01*
X170690869Y-124049138D01*
X170689077Y-123993465D01*
X170688081Y-123918185D01*
X170687650Y-123819816D01*
X170687557Y-123694872D01*
X170687610Y-123594140D01*
X170687949Y-123490414D01*
X170688807Y-123410519D01*
X170690410Y-123350971D01*
X170692988Y-123308284D01*
X170696769Y-123278975D01*
X170701982Y-123259559D01*
X170708855Y-123246552D01*
X170717617Y-123236470D01*
X170756470Y-123211145D01*
X170800579Y-123212264D01*
G36*
X170800579Y-123212264D02*
G01*
X170846051Y-123243301D01*
X170882942Y-123280192D01*
X170882942Y-123696978D01*
X170882887Y-123808852D01*
X170882543Y-123907668D01*
X170881650Y-123983226D01*
X170879949Y-124039104D01*
X170877181Y-124078882D01*
X170873088Y-124106136D01*
X170867409Y-124124447D01*
X170859888Y-124137391D01*
X170850263Y-124148548D01*
X170808374Y-124177125D01*
X170761556Y-124179476D01*
X170717617Y-124153274D01*
X170710551Y-124145461D01*
X170703296Y-124133367D01*
X170697750Y-124115605D01*
X170693683Y-124088690D01*
X170690869Y-124049138D01*
X170689077Y-123993465D01*
X170688081Y-123918185D01*
X170687650Y-123819816D01*
X170687557Y-123694872D01*
X170687610Y-123594140D01*
X170687949Y-123490414D01*
X170688807Y-123410519D01*
X170690410Y-123350971D01*
X170692988Y-123308284D01*
X170696769Y-123278975D01*
X170701982Y-123259559D01*
X170708855Y-123246552D01*
X170717617Y-123236470D01*
X170756470Y-123211145D01*
X170800579Y-123212264D01*
G37*
X170886337Y-114670839D02*
X171025779Y-114705005D01*
X171157955Y-114766325D01*
X171278699Y-114854810D01*
X171383846Y-114970470D01*
X171469230Y-115113313D01*
X171492121Y-115163633D01*
X171510666Y-115214636D01*
X171521072Y-115265624D01*
X171525633Y-115328691D01*
X171526643Y-115415929D01*
X171526032Y-115488539D01*
X171522350Y-115555270D01*
X171513322Y-115607334D01*
X171496694Y-115656686D01*
X171470212Y-115715286D01*
X171462552Y-115730902D01*
X171372006Y-115873893D01*
X171258125Y-115991543D01*
X171124141Y-116081089D01*
X170973286Y-116139772D01*
X170895881Y-116156147D01*
X170738849Y-116163810D01*
X170586753Y-116139016D01*
X170444054Y-116084306D01*
X170315212Y-116002223D01*
X170204686Y-115895309D01*
X170116936Y-115766107D01*
X170056423Y-115617158D01*
X170034283Y-115495265D01*
X170032288Y-115360751D01*
X170050295Y-115229908D01*
X170087446Y-115116572D01*
X170130372Y-115035543D01*
X170225933Y-114906987D01*
X170339221Y-114805527D01*
X170466071Y-114731172D01*
X170602318Y-114683933D01*
X170743795Y-114663818D01*
X170886337Y-114670839D01*
G36*
X170886337Y-114670839D02*
G01*
X171025779Y-114705005D01*
X171157955Y-114766325D01*
X171278699Y-114854810D01*
X171383846Y-114970470D01*
X171469230Y-115113313D01*
X171492121Y-115163633D01*
X171510666Y-115214636D01*
X171521072Y-115265624D01*
X171525633Y-115328691D01*
X171526643Y-115415929D01*
X171526032Y-115488539D01*
X171522350Y-115555270D01*
X171513322Y-115607334D01*
X171496694Y-115656686D01*
X171470212Y-115715286D01*
X171462552Y-115730902D01*
X171372006Y-115873893D01*
X171258125Y-115991543D01*
X171124141Y-116081089D01*
X170973286Y-116139772D01*
X170895881Y-116156147D01*
X170738849Y-116163810D01*
X170586753Y-116139016D01*
X170444054Y-116084306D01*
X170315212Y-116002223D01*
X170204686Y-115895309D01*
X170116936Y-115766107D01*
X170056423Y-115617158D01*
X170034283Y-115495265D01*
X170032288Y-115360751D01*
X170050295Y-115229908D01*
X170087446Y-115116572D01*
X170130372Y-115035543D01*
X170225933Y-114906987D01*
X170339221Y-114805527D01*
X170466071Y-114731172D01*
X170602318Y-114683933D01*
X170743795Y-114663818D01*
X170886337Y-114670839D01*
G37*
X160375531Y-123206412D02*
X160500843Y-123206532D01*
X160600048Y-123206984D01*
X160676478Y-123207972D01*
X160733459Y-123209697D01*
X160774323Y-123212361D01*
X160802397Y-123216169D01*
X160821012Y-123221321D01*
X160833496Y-123228020D01*
X160843179Y-123236470D01*
X160868216Y-123280029D01*
X160870142Y-123330057D01*
X160848364Y-123374310D01*
X160846553Y-123376245D01*
X160831638Y-123387376D01*
X160808868Y-123394771D01*
X160772696Y-123399157D01*
X160717573Y-123401256D01*
X160637950Y-123401795D01*
X160452409Y-123401795D01*
X160452409Y-123752963D01*
X160452309Y-123853918D01*
X160451766Y-123942674D01*
X160450458Y-124008955D01*
X160448067Y-124056773D01*
X160444271Y-124090146D01*
X160438752Y-124113086D01*
X160431188Y-124129610D01*
X160421259Y-124143733D01*
X160418210Y-124147469D01*
X160376700Y-124177614D01*
X160330929Y-124179696D01*
X160287084Y-124153274D01*
X160277793Y-124142523D01*
X160270508Y-124128412D01*
X160265156Y-124107319D01*
X160261440Y-124075398D01*
X160259064Y-124028802D01*
X160257734Y-123963685D01*
X160257153Y-123876201D01*
X160257025Y-123762505D01*
X160257025Y-123401795D01*
X160062731Y-123401795D01*
X160047953Y-123401794D01*
X159972708Y-123401494D01*
X159920992Y-123399977D01*
X159887185Y-123396250D01*
X159865668Y-123389318D01*
X159850821Y-123378186D01*
X159837024Y-123361860D01*
X159815926Y-123321003D01*
X159820056Y-123276029D01*
X159854197Y-123232712D01*
X159860775Y-123227763D01*
X159874369Y-123221325D01*
X159894906Y-123216314D01*
X159925689Y-123212557D01*
X159970020Y-123209876D01*
X160031201Y-123208096D01*
X160112535Y-123207043D01*
X160217323Y-123206539D01*
X160348867Y-123206410D01*
X160375531Y-123206412D01*
G36*
X160375531Y-123206412D02*
G01*
X160500843Y-123206532D01*
X160600048Y-123206984D01*
X160676478Y-123207972D01*
X160733459Y-123209697D01*
X160774323Y-123212361D01*
X160802397Y-123216169D01*
X160821012Y-123221321D01*
X160833496Y-123228020D01*
X160843179Y-123236470D01*
X160868216Y-123280029D01*
X160870142Y-123330057D01*
X160848364Y-123374310D01*
X160846553Y-123376245D01*
X160831638Y-123387376D01*
X160808868Y-123394771D01*
X160772696Y-123399157D01*
X160717573Y-123401256D01*
X160637950Y-123401795D01*
X160452409Y-123401795D01*
X160452409Y-123752963D01*
X160452309Y-123853918D01*
X160451766Y-123942674D01*
X160450458Y-124008955D01*
X160448067Y-124056773D01*
X160444271Y-124090146D01*
X160438752Y-124113086D01*
X160431188Y-124129610D01*
X160421259Y-124143733D01*
X160418210Y-124147469D01*
X160376700Y-124177614D01*
X160330929Y-124179696D01*
X160287084Y-124153274D01*
X160277793Y-124142523D01*
X160270508Y-124128412D01*
X160265156Y-124107319D01*
X160261440Y-124075398D01*
X160259064Y-124028802D01*
X160257734Y-123963685D01*
X160257153Y-123876201D01*
X160257025Y-123762505D01*
X160257025Y-123401795D01*
X160062731Y-123401795D01*
X160047953Y-123401794D01*
X159972708Y-123401494D01*
X159920992Y-123399977D01*
X159887185Y-123396250D01*
X159865668Y-123389318D01*
X159850821Y-123378186D01*
X159837024Y-123361860D01*
X159815926Y-123321003D01*
X159820056Y-123276029D01*
X159854197Y-123232712D01*
X159860775Y-123227763D01*
X159874369Y-123221325D01*
X159894906Y-123216314D01*
X159925689Y-123212557D01*
X159970020Y-123209876D01*
X160031201Y-123208096D01*
X160112535Y-123207043D01*
X160217323Y-123206539D01*
X160348867Y-123206410D01*
X160375531Y-123206412D01*
G37*
X159475486Y-123236470D02*
X159482985Y-123244711D01*
X159489762Y-123255636D01*
X159495202Y-123271315D01*
X159499434Y-123294559D01*
X159502584Y-123328181D01*
X159504782Y-123374992D01*
X159506155Y-123437803D01*
X159506832Y-123519427D01*
X159506940Y-123622674D01*
X159506608Y-123750357D01*
X159505964Y-123905286D01*
X159505872Y-123924158D01*
X159505092Y-124006386D01*
X159503331Y-124064544D01*
X159499942Y-124103660D01*
X159494277Y-124128761D01*
X159485688Y-124144876D01*
X159473527Y-124157032D01*
X159428983Y-124180220D01*
X159382454Y-124176357D01*
X159341311Y-124143733D01*
X159329316Y-124126155D01*
X159319396Y-124101477D01*
X159313581Y-124066824D01*
X159310845Y-124015505D01*
X159310161Y-123940833D01*
X159310161Y-123777535D01*
X158648859Y-123777535D01*
X158648859Y-123957038D01*
X158648762Y-124004688D01*
X158647747Y-124066370D01*
X158644849Y-124107022D01*
X158639128Y-124132358D01*
X158629644Y-124148092D01*
X158615456Y-124159937D01*
X158572518Y-124180000D01*
X158525539Y-124176449D01*
X158484625Y-124143733D01*
X158478426Y-124135405D01*
X158470524Y-124121394D01*
X158464491Y-124102848D01*
X158460077Y-124076123D01*
X158457029Y-124037570D01*
X158455097Y-123983544D01*
X158454028Y-123910398D01*
X158453571Y-123814486D01*
X158453475Y-123692162D01*
X158453475Y-123280192D01*
X158490365Y-123243301D01*
X158532141Y-123213688D01*
X158576381Y-123210107D01*
X158618800Y-123236470D01*
X158629831Y-123249478D01*
X158639699Y-123270636D01*
X158645474Y-123302545D01*
X158648184Y-123351636D01*
X158648859Y-123424339D01*
X158648859Y-123582150D01*
X159310161Y-123582150D01*
X159310161Y-123428360D01*
X159310744Y-123359533D01*
X159313359Y-123313568D01*
X159319371Y-123283511D01*
X159330147Y-123262407D01*
X159347052Y-123243301D01*
X159388828Y-123213688D01*
X159433067Y-123210107D01*
X159475486Y-123236470D01*
G36*
X159475486Y-123236470D02*
G01*
X159482985Y-123244711D01*
X159489762Y-123255636D01*
X159495202Y-123271315D01*
X159499434Y-123294559D01*
X159502584Y-123328181D01*
X159504782Y-123374992D01*
X159506155Y-123437803D01*
X159506832Y-123519427D01*
X159506940Y-123622674D01*
X159506608Y-123750357D01*
X159505964Y-123905286D01*
X159505872Y-123924158D01*
X159505092Y-124006386D01*
X159503331Y-124064544D01*
X159499942Y-124103660D01*
X159494277Y-124128761D01*
X159485688Y-124144876D01*
X159473527Y-124157032D01*
X159428983Y-124180220D01*
X159382454Y-124176357D01*
X159341311Y-124143733D01*
X159329316Y-124126155D01*
X159319396Y-124101477D01*
X159313581Y-124066824D01*
X159310845Y-124015505D01*
X159310161Y-123940833D01*
X159310161Y-123777535D01*
X158648859Y-123777535D01*
X158648859Y-123957038D01*
X158648762Y-124004688D01*
X158647747Y-124066370D01*
X158644849Y-124107022D01*
X158639128Y-124132358D01*
X158629644Y-124148092D01*
X158615456Y-124159937D01*
X158572518Y-124180000D01*
X158525539Y-124176449D01*
X158484625Y-124143733D01*
X158478426Y-124135405D01*
X158470524Y-124121394D01*
X158464491Y-124102848D01*
X158460077Y-124076123D01*
X158457029Y-124037570D01*
X158455097Y-123983544D01*
X158454028Y-123910398D01*
X158453571Y-123814486D01*
X158453475Y-123692162D01*
X158453475Y-123280192D01*
X158490365Y-123243301D01*
X158532141Y-123213688D01*
X158576381Y-123210107D01*
X158618800Y-123236470D01*
X158629831Y-123249478D01*
X158639699Y-123270636D01*
X158645474Y-123302545D01*
X158648184Y-123351636D01*
X158648859Y-123424339D01*
X158648859Y-123582150D01*
X159310161Y-123582150D01*
X159310161Y-123428360D01*
X159310744Y-123359533D01*
X159313359Y-123313568D01*
X159319371Y-123283511D01*
X159330147Y-123262407D01*
X159347052Y-123243301D01*
X159388828Y-123213688D01*
X159433067Y-123210107D01*
X159475486Y-123236470D01*
G37*
X165740071Y-124020311D02*
X165737449Y-124063950D01*
X165733550Y-124094466D01*
X165728122Y-124115504D01*
X165720914Y-124130711D01*
X165711674Y-124143733D01*
X165680524Y-124183334D01*
X165459928Y-124182543D01*
X165413602Y-124182146D01*
X165282485Y-124177579D01*
X165174696Y-124167351D01*
X165085369Y-124150632D01*
X165009637Y-124126595D01*
X164942634Y-124094409D01*
X164938162Y-124091857D01*
X164861194Y-124042972D01*
X164804805Y-123993757D01*
X164761115Y-123935862D01*
X164722239Y-123860937D01*
X164716539Y-123848135D01*
X164686480Y-123764012D01*
X164678845Y-123703362D01*
X164877544Y-123703362D01*
X164885017Y-123736284D01*
X164892640Y-123757424D01*
X164936482Y-123837183D01*
X164999506Y-123898097D01*
X165084401Y-123942212D01*
X165193851Y-123971575D01*
X165197570Y-123972243D01*
X165259193Y-123980181D01*
X165334277Y-123985810D01*
X165407418Y-123987949D01*
X165532409Y-123987949D01*
X165532409Y-123401795D01*
X165415930Y-123402392D01*
X165326836Y-123405688D01*
X165203821Y-123420668D01*
X165098224Y-123446682D01*
X165015713Y-123482594D01*
X164974521Y-123510191D01*
X164937083Y-123549820D01*
X164906010Y-123606307D01*
X164896521Y-123627564D01*
X164880779Y-123670836D01*
X164877544Y-123703362D01*
X164678845Y-123703362D01*
X164677199Y-123690284D01*
X164688651Y-123617024D01*
X164720792Y-123534304D01*
X164721851Y-123532050D01*
X164775707Y-123439624D01*
X164843186Y-123364271D01*
X164926697Y-123304935D01*
X165028647Y-123260563D01*
X165151445Y-123230101D01*
X165297499Y-123212493D01*
X165469217Y-123206687D01*
X165473972Y-123206681D01*
X165553881Y-123206867D01*
X165609706Y-123208247D01*
X165647135Y-123211701D01*
X165671857Y-123218108D01*
X165689560Y-123228348D01*
X165705933Y-123243301D01*
X165742824Y-123280192D01*
X165742824Y-123692162D01*
X165742790Y-123774181D01*
X165742490Y-123879072D01*
X165741668Y-123959900D01*
X165740926Y-123987949D01*
X165740071Y-124020311D01*
G36*
X165740071Y-124020311D02*
G01*
X165737449Y-124063950D01*
X165733550Y-124094466D01*
X165728122Y-124115504D01*
X165720914Y-124130711D01*
X165711674Y-124143733D01*
X165680524Y-124183334D01*
X165459928Y-124182543D01*
X165413602Y-124182146D01*
X165282485Y-124177579D01*
X165174696Y-124167351D01*
X165085369Y-124150632D01*
X165009637Y-124126595D01*
X164942634Y-124094409D01*
X164938162Y-124091857D01*
X164861194Y-124042972D01*
X164804805Y-123993757D01*
X164761115Y-123935862D01*
X164722239Y-123860937D01*
X164716539Y-123848135D01*
X164686480Y-123764012D01*
X164678845Y-123703362D01*
X164877544Y-123703362D01*
X164885017Y-123736284D01*
X164892640Y-123757424D01*
X164936482Y-123837183D01*
X164999506Y-123898097D01*
X165084401Y-123942212D01*
X165193851Y-123971575D01*
X165197570Y-123972243D01*
X165259193Y-123980181D01*
X165334277Y-123985810D01*
X165407418Y-123987949D01*
X165532409Y-123987949D01*
X165532409Y-123401795D01*
X165415930Y-123402392D01*
X165326836Y-123405688D01*
X165203821Y-123420668D01*
X165098224Y-123446682D01*
X165015713Y-123482594D01*
X164974521Y-123510191D01*
X164937083Y-123549820D01*
X164906010Y-123606307D01*
X164896521Y-123627564D01*
X164880779Y-123670836D01*
X164877544Y-123703362D01*
X164678845Y-123703362D01*
X164677199Y-123690284D01*
X164688651Y-123617024D01*
X164720792Y-123534304D01*
X164721851Y-123532050D01*
X164775707Y-123439624D01*
X164843186Y-123364271D01*
X164926697Y-123304935D01*
X165028647Y-123260563D01*
X165151445Y-123230101D01*
X165297499Y-123212493D01*
X165469217Y-123206687D01*
X165473972Y-123206681D01*
X165553881Y-123206867D01*
X165609706Y-123208247D01*
X165647135Y-123211701D01*
X165671857Y-123218108D01*
X165689560Y-123228348D01*
X165705933Y-123243301D01*
X165742824Y-123280192D01*
X165742824Y-123692162D01*
X165742790Y-123774181D01*
X165742490Y-123879072D01*
X165741668Y-123959900D01*
X165740926Y-123987949D01*
X165740071Y-124020311D01*
G37*
X175181662Y-123453192D02*
X175181734Y-123560519D01*
X175181403Y-123694872D01*
X175181351Y-123795605D01*
X175181011Y-123899330D01*
X175180154Y-123979225D01*
X175178551Y-124038773D01*
X175175973Y-124081460D01*
X175172192Y-124110769D01*
X175166979Y-124130185D01*
X175160106Y-124143192D01*
X175151344Y-124153274D01*
X175142068Y-124161574D01*
X175124763Y-124171293D01*
X175099270Y-124177622D01*
X175060123Y-124181266D01*
X175001855Y-124182935D01*
X174919000Y-124183334D01*
X174853834Y-124182834D01*
X174711566Y-124176938D01*
X174592771Y-124163508D01*
X174493188Y-124141423D01*
X174408552Y-124109563D01*
X174334600Y-124066808D01*
X174267067Y-124012038D01*
X174259095Y-124004246D01*
X174210011Y-123939663D01*
X174168607Y-123858705D01*
X174140005Y-123773174D01*
X174132974Y-123721593D01*
X174328974Y-123721593D01*
X174353314Y-123789406D01*
X174392816Y-123850538D01*
X174454986Y-123907000D01*
X174536717Y-123946678D01*
X174642090Y-123972155D01*
X174644074Y-123972472D01*
X174709272Y-123980183D01*
X174787415Y-123985696D01*
X174862025Y-123987835D01*
X174986019Y-123987949D01*
X174986019Y-123401795D01*
X174884569Y-123401776D01*
X174880538Y-123401788D01*
X174812479Y-123404404D01*
X174732461Y-123410694D01*
X174656961Y-123419386D01*
X174590449Y-123431763D01*
X174490927Y-123466735D01*
X174414362Y-123519056D01*
X174359109Y-123589665D01*
X174330861Y-123657919D01*
X174328974Y-123721593D01*
X174132974Y-123721593D01*
X174129332Y-123694872D01*
X174131035Y-123666625D01*
X174147427Y-123590184D01*
X174177421Y-123510421D01*
X174216337Y-123438462D01*
X174259495Y-123385433D01*
X174285512Y-123362769D01*
X174358353Y-123310597D01*
X174438638Y-123270483D01*
X174530763Y-123241246D01*
X174639125Y-123221699D01*
X174768119Y-123210660D01*
X174922143Y-123206944D01*
X174974708Y-123206409D01*
X175035566Y-123205859D01*
X175083229Y-123208261D01*
X175119297Y-123216625D01*
X175145368Y-123233960D01*
X175163041Y-123263275D01*
X175173915Y-123307579D01*
X175179590Y-123369881D01*
X175180384Y-123401795D01*
X175181662Y-123453192D01*
G36*
X175181662Y-123453192D02*
G01*
X175181734Y-123560519D01*
X175181403Y-123694872D01*
X175181351Y-123795605D01*
X175181011Y-123899330D01*
X175180154Y-123979225D01*
X175178551Y-124038773D01*
X175175973Y-124081460D01*
X175172192Y-124110769D01*
X175166979Y-124130185D01*
X175160106Y-124143192D01*
X175151344Y-124153274D01*
X175142068Y-124161574D01*
X175124763Y-124171293D01*
X175099270Y-124177622D01*
X175060123Y-124181266D01*
X175001855Y-124182935D01*
X174919000Y-124183334D01*
X174853834Y-124182834D01*
X174711566Y-124176938D01*
X174592771Y-124163508D01*
X174493188Y-124141423D01*
X174408552Y-124109563D01*
X174334600Y-124066808D01*
X174267067Y-124012038D01*
X174259095Y-124004246D01*
X174210011Y-123939663D01*
X174168607Y-123858705D01*
X174140005Y-123773174D01*
X174132974Y-123721593D01*
X174328974Y-123721593D01*
X174353314Y-123789406D01*
X174392816Y-123850538D01*
X174454986Y-123907000D01*
X174536717Y-123946678D01*
X174642090Y-123972155D01*
X174644074Y-123972472D01*
X174709272Y-123980183D01*
X174787415Y-123985696D01*
X174862025Y-123987835D01*
X174986019Y-123987949D01*
X174986019Y-123401795D01*
X174884569Y-123401776D01*
X174880538Y-123401788D01*
X174812479Y-123404404D01*
X174732461Y-123410694D01*
X174656961Y-123419386D01*
X174590449Y-123431763D01*
X174490927Y-123466735D01*
X174414362Y-123519056D01*
X174359109Y-123589665D01*
X174330861Y-123657919D01*
X174328974Y-123721593D01*
X174132974Y-123721593D01*
X174129332Y-123694872D01*
X174131035Y-123666625D01*
X174147427Y-123590184D01*
X174177421Y-123510421D01*
X174216337Y-123438462D01*
X174259495Y-123385433D01*
X174285512Y-123362769D01*
X174358353Y-123310597D01*
X174438638Y-123270483D01*
X174530763Y-123241246D01*
X174639125Y-123221699D01*
X174768119Y-123210660D01*
X174922143Y-123206944D01*
X174974708Y-123206409D01*
X175035566Y-123205859D01*
X175083229Y-123208261D01*
X175119297Y-123216625D01*
X175145368Y-123233960D01*
X175163041Y-123263275D01*
X175173915Y-123307579D01*
X175179590Y-123369881D01*
X175180384Y-123401795D01*
X175181662Y-123453192D01*
G37*
X168598184Y-123204846D02*
X168613372Y-123213017D01*
X168627416Y-123227212D01*
X168642443Y-123246011D01*
X168648371Y-123253948D01*
X168656357Y-123267920D01*
X168662454Y-123286327D01*
X168666916Y-123312827D01*
X168669997Y-123351083D01*
X168671951Y-123404755D01*
X168673033Y-123477503D01*
X168673495Y-123572988D01*
X168673593Y-123694872D01*
X168673562Y-123772797D01*
X168673272Y-123878091D01*
X168672461Y-123959227D01*
X168670875Y-124019866D01*
X168668262Y-124063669D01*
X168664366Y-124094296D01*
X168658933Y-124115409D01*
X168651710Y-124130667D01*
X168642443Y-124143733D01*
X168601931Y-124176209D01*
X168555410Y-124180042D01*
X168506175Y-124154626D01*
X168500605Y-124150000D01*
X168489720Y-124138646D01*
X168481651Y-124123268D01*
X168475816Y-124099526D01*
X168471633Y-124063084D01*
X168468521Y-124009604D01*
X168465897Y-123934747D01*
X168463179Y-123834177D01*
X168455664Y-123542435D01*
X168102469Y-123862814D01*
X168004169Y-123951718D01*
X167917391Y-124029091D01*
X167847902Y-124088946D01*
X167793217Y-124132777D01*
X167750854Y-124162077D01*
X167718332Y-124178340D01*
X167693166Y-124183060D01*
X167672875Y-124177731D01*
X167654976Y-124163846D01*
X167636987Y-124142899D01*
X167628672Y-124131605D01*
X167621174Y-124117523D01*
X167615568Y-124098673D01*
X167611638Y-124071443D01*
X167609168Y-124032221D01*
X167607944Y-123977394D01*
X167607751Y-123903348D01*
X167608373Y-123806471D01*
X167609594Y-123683150D01*
X167614007Y-123263835D01*
X167649489Y-123235123D01*
X167684191Y-123213566D01*
X167727937Y-123209877D01*
X167773910Y-123235110D01*
X167779651Y-123239882D01*
X167790478Y-123251238D01*
X167798505Y-123266671D01*
X167804310Y-123290510D01*
X167808474Y-123327084D01*
X167811576Y-123380722D01*
X167814193Y-123455754D01*
X167816906Y-123556508D01*
X167824421Y-123849207D01*
X168064895Y-123631138D01*
X168180374Y-123526448D01*
X168281253Y-123435392D01*
X168363979Y-123361702D01*
X168430678Y-123303960D01*
X168483476Y-123260749D01*
X168524499Y-123230649D01*
X168555874Y-123212244D01*
X168579727Y-123204116D01*
X168598184Y-123204846D01*
G36*
X168598184Y-123204846D02*
G01*
X168613372Y-123213017D01*
X168627416Y-123227212D01*
X168642443Y-123246011D01*
X168648371Y-123253948D01*
X168656357Y-123267920D01*
X168662454Y-123286327D01*
X168666916Y-123312827D01*
X168669997Y-123351083D01*
X168671951Y-123404755D01*
X168673033Y-123477503D01*
X168673495Y-123572988D01*
X168673593Y-123694872D01*
X168673562Y-123772797D01*
X168673272Y-123878091D01*
X168672461Y-123959227D01*
X168670875Y-124019866D01*
X168668262Y-124063669D01*
X168664366Y-124094296D01*
X168658933Y-124115409D01*
X168651710Y-124130667D01*
X168642443Y-124143733D01*
X168601931Y-124176209D01*
X168555410Y-124180042D01*
X168506175Y-124154626D01*
X168500605Y-124150000D01*
X168489720Y-124138646D01*
X168481651Y-124123268D01*
X168475816Y-124099526D01*
X168471633Y-124063084D01*
X168468521Y-124009604D01*
X168465897Y-123934747D01*
X168463179Y-123834177D01*
X168455664Y-123542435D01*
X168102469Y-123862814D01*
X168004169Y-123951718D01*
X167917391Y-124029091D01*
X167847902Y-124088946D01*
X167793217Y-124132777D01*
X167750854Y-124162077D01*
X167718332Y-124178340D01*
X167693166Y-124183060D01*
X167672875Y-124177731D01*
X167654976Y-124163846D01*
X167636987Y-124142899D01*
X167628672Y-124131605D01*
X167621174Y-124117523D01*
X167615568Y-124098673D01*
X167611638Y-124071443D01*
X167609168Y-124032221D01*
X167607944Y-123977394D01*
X167607751Y-123903348D01*
X167608373Y-123806471D01*
X167609594Y-123683150D01*
X167614007Y-123263835D01*
X167649489Y-123235123D01*
X167684191Y-123213566D01*
X167727937Y-123209877D01*
X167773910Y-123235110D01*
X167779651Y-123239882D01*
X167790478Y-123251238D01*
X167798505Y-123266671D01*
X167804310Y-123290510D01*
X167808474Y-123327084D01*
X167811576Y-123380722D01*
X167814193Y-123455754D01*
X167816906Y-123556508D01*
X167824421Y-123849207D01*
X168064895Y-123631138D01*
X168180374Y-123526448D01*
X168281253Y-123435392D01*
X168363979Y-123361702D01*
X168430678Y-123303960D01*
X168483476Y-123260749D01*
X168524499Y-123230649D01*
X168555874Y-123212244D01*
X168579727Y-123204116D01*
X168598184Y-123204846D01*
G37*
X169659621Y-123213217D02*
X169800754Y-123234938D01*
X169925652Y-123272285D01*
X170030557Y-123324083D01*
X170111709Y-123389162D01*
X170146418Y-123432913D01*
X170185703Y-123498414D01*
X170219349Y-123570119D01*
X170242847Y-123638241D01*
X170251688Y-123692993D01*
X170249611Y-123719241D01*
X170232381Y-123787583D01*
X170201543Y-123862840D01*
X170161746Y-123934622D01*
X170117640Y-123992542D01*
X170104065Y-124006319D01*
X170014750Y-124075250D01*
X169908074Y-124128362D01*
X169793297Y-124160849D01*
X169720120Y-124171649D01*
X169595700Y-124180442D01*
X169476170Y-124177663D01*
X169366346Y-124164023D01*
X169271044Y-124140232D01*
X169195079Y-124106998D01*
X169143267Y-124065033D01*
X169141436Y-124062403D01*
X169132000Y-124028818D01*
X169126356Y-123965910D01*
X169124480Y-123873428D01*
X169125625Y-123790574D01*
X169131909Y-123727491D01*
X169147472Y-123684750D01*
X169176455Y-123658719D01*
X169222998Y-123645764D01*
X169291241Y-123642253D01*
X169385324Y-123644554D01*
X169450055Y-123648564D01*
X169516884Y-123659471D01*
X169560145Y-123678181D01*
X169583389Y-123706453D01*
X169590167Y-123746048D01*
X169590026Y-123752094D01*
X169578440Y-123798417D01*
X169546475Y-123829594D01*
X169491536Y-123847168D01*
X169411031Y-123852683D01*
X169319865Y-123852683D01*
X169319865Y-123903743D01*
X169319932Y-123915906D01*
X169322888Y-123938873D01*
X169335226Y-123952578D01*
X169363692Y-123961814D01*
X169415031Y-123971376D01*
X169422319Y-123972620D01*
X169551395Y-123985805D01*
X169671206Y-123981918D01*
X169778924Y-123962307D01*
X169871718Y-123928317D01*
X169946760Y-123881293D01*
X170001220Y-123822581D01*
X170032270Y-123753527D01*
X170037079Y-123675478D01*
X170029732Y-123637008D01*
X169994207Y-123562599D01*
X169932713Y-123501810D01*
X169846199Y-123455431D01*
X169735614Y-123424252D01*
X169702763Y-123418329D01*
X169583834Y-123404351D01*
X169477582Y-123405987D01*
X169373613Y-123423209D01*
X169326824Y-123432248D01*
X169266330Y-123433603D01*
X169224639Y-123416919D01*
X169197807Y-123381256D01*
X169189308Y-123343649D01*
X169201938Y-123302078D01*
X169214358Y-123284204D01*
X169259936Y-123252875D01*
X169329995Y-123229082D01*
X169421216Y-123213776D01*
X169530279Y-123207909D01*
X169659621Y-123213217D01*
G36*
X169659621Y-123213217D02*
G01*
X169800754Y-123234938D01*
X169925652Y-123272285D01*
X170030557Y-123324083D01*
X170111709Y-123389162D01*
X170146418Y-123432913D01*
X170185703Y-123498414D01*
X170219349Y-123570119D01*
X170242847Y-123638241D01*
X170251688Y-123692993D01*
X170249611Y-123719241D01*
X170232381Y-123787583D01*
X170201543Y-123862840D01*
X170161746Y-123934622D01*
X170117640Y-123992542D01*
X170104065Y-124006319D01*
X170014750Y-124075250D01*
X169908074Y-124128362D01*
X169793297Y-124160849D01*
X169720120Y-124171649D01*
X169595700Y-124180442D01*
X169476170Y-124177663D01*
X169366346Y-124164023D01*
X169271044Y-124140232D01*
X169195079Y-124106998D01*
X169143267Y-124065033D01*
X169141436Y-124062403D01*
X169132000Y-124028818D01*
X169126356Y-123965910D01*
X169124480Y-123873428D01*
X169125625Y-123790574D01*
X169131909Y-123727491D01*
X169147472Y-123684750D01*
X169176455Y-123658719D01*
X169222998Y-123645764D01*
X169291241Y-123642253D01*
X169385324Y-123644554D01*
X169450055Y-123648564D01*
X169516884Y-123659471D01*
X169560145Y-123678181D01*
X169583389Y-123706453D01*
X169590167Y-123746048D01*
X169590026Y-123752094D01*
X169578440Y-123798417D01*
X169546475Y-123829594D01*
X169491536Y-123847168D01*
X169411031Y-123852683D01*
X169319865Y-123852683D01*
X169319865Y-123903743D01*
X169319932Y-123915906D01*
X169322888Y-123938873D01*
X169335226Y-123952578D01*
X169363692Y-123961814D01*
X169415031Y-123971376D01*
X169422319Y-123972620D01*
X169551395Y-123985805D01*
X169671206Y-123981918D01*
X169778924Y-123962307D01*
X169871718Y-123928317D01*
X169946760Y-123881293D01*
X170001220Y-123822581D01*
X170032270Y-123753527D01*
X170037079Y-123675478D01*
X170029732Y-123637008D01*
X169994207Y-123562599D01*
X169932713Y-123501810D01*
X169846199Y-123455431D01*
X169735614Y-123424252D01*
X169702763Y-123418329D01*
X169583834Y-123404351D01*
X169477582Y-123405987D01*
X169373613Y-123423209D01*
X169326824Y-123432248D01*
X169266330Y-123433603D01*
X169224639Y-123416919D01*
X169197807Y-123381256D01*
X169189308Y-123343649D01*
X169201938Y-123302078D01*
X169214358Y-123284204D01*
X169259936Y-123252875D01*
X169329995Y-123229082D01*
X169421216Y-123213776D01*
X169530279Y-123207909D01*
X169659621Y-123213217D01*
G37*
X167064336Y-123246011D02*
X167070925Y-123254910D01*
X167078706Y-123268984D01*
X167084645Y-123287739D01*
X167088991Y-123314799D01*
X167091990Y-123353790D01*
X167093892Y-123408339D01*
X167094943Y-123482069D01*
X167095392Y-123578608D01*
X167095486Y-123701580D01*
X167095448Y-123789339D01*
X167095139Y-123893607D01*
X167094313Y-123973845D01*
X167092725Y-124033621D01*
X167090132Y-124076502D01*
X167086291Y-124106056D01*
X167080958Y-124125852D01*
X167073890Y-124139457D01*
X167064842Y-124150440D01*
X167058831Y-124156641D01*
X167047874Y-124165277D01*
X167032750Y-124171816D01*
X167009760Y-124176550D01*
X166975204Y-124179769D01*
X166925386Y-124181766D01*
X166856604Y-124182831D01*
X166765161Y-124183256D01*
X166647357Y-124183334D01*
X166621163Y-124183325D01*
X166505302Y-124182970D01*
X166415232Y-124181951D01*
X166347393Y-124180068D01*
X166298224Y-124177123D01*
X166264162Y-124172919D01*
X166241646Y-124167256D01*
X166227115Y-124159937D01*
X166213145Y-124146642D01*
X166195490Y-124105214D01*
X166197064Y-124057434D01*
X166218585Y-124015434D01*
X166221500Y-124012404D01*
X166233066Y-124004059D01*
X166250829Y-123997847D01*
X166278765Y-123993458D01*
X166320851Y-123990584D01*
X166381065Y-123988914D01*
X166463382Y-123988139D01*
X166571780Y-123987949D01*
X166900102Y-123987949D01*
X166900102Y-123777535D01*
X166683838Y-123777535D01*
X166636350Y-123777428D01*
X166562100Y-123776366D01*
X166509993Y-123773697D01*
X166474774Y-123768849D01*
X166451185Y-123761249D01*
X166433971Y-123750325D01*
X166429121Y-123746086D01*
X166404614Y-123704847D01*
X166403770Y-123656471D01*
X166427120Y-123611711D01*
X166427203Y-123611620D01*
X166440078Y-123600135D01*
X166457777Y-123592073D01*
X166485346Y-123586839D01*
X166527831Y-123583837D01*
X166590279Y-123582473D01*
X166677737Y-123582150D01*
X166901602Y-123582150D01*
X166897094Y-123495730D01*
X166892587Y-123409310D01*
X166570295Y-123405245D01*
X166536989Y-123404809D01*
X166428324Y-123402839D01*
X166345354Y-123399665D01*
X166284626Y-123394345D01*
X166242685Y-123385940D01*
X166216078Y-123373506D01*
X166201349Y-123356103D01*
X166195045Y-123332790D01*
X166193711Y-123302626D01*
X166193719Y-123299476D01*
X166195255Y-123272808D01*
X166201643Y-123251782D01*
X166216032Y-123235731D01*
X166241573Y-123223984D01*
X166281419Y-123215874D01*
X166338718Y-123210730D01*
X166416623Y-123207884D01*
X166518284Y-123206667D01*
X166646852Y-123206410D01*
X167033186Y-123206410D01*
X167064336Y-123246011D01*
G36*
X167064336Y-123246011D02*
G01*
X167070925Y-123254910D01*
X167078706Y-123268984D01*
X167084645Y-123287739D01*
X167088991Y-123314799D01*
X167091990Y-123353790D01*
X167093892Y-123408339D01*
X167094943Y-123482069D01*
X167095392Y-123578608D01*
X167095486Y-123701580D01*
X167095448Y-123789339D01*
X167095139Y-123893607D01*
X167094313Y-123973845D01*
X167092725Y-124033621D01*
X167090132Y-124076502D01*
X167086291Y-124106056D01*
X167080958Y-124125852D01*
X167073890Y-124139457D01*
X167064842Y-124150440D01*
X167058831Y-124156641D01*
X167047874Y-124165277D01*
X167032750Y-124171816D01*
X167009760Y-124176550D01*
X166975204Y-124179769D01*
X166925386Y-124181766D01*
X166856604Y-124182831D01*
X166765161Y-124183256D01*
X166647357Y-124183334D01*
X166621163Y-124183325D01*
X166505302Y-124182970D01*
X166415232Y-124181951D01*
X166347393Y-124180068D01*
X166298224Y-124177123D01*
X166264162Y-124172919D01*
X166241646Y-124167256D01*
X166227115Y-124159937D01*
X166213145Y-124146642D01*
X166195490Y-124105214D01*
X166197064Y-124057434D01*
X166218585Y-124015434D01*
X166221500Y-124012404D01*
X166233066Y-124004059D01*
X166250829Y-123997847D01*
X166278765Y-123993458D01*
X166320851Y-123990584D01*
X166381065Y-123988914D01*
X166463382Y-123988139D01*
X166571780Y-123987949D01*
X166900102Y-123987949D01*
X166900102Y-123777535D01*
X166683838Y-123777535D01*
X166636350Y-123777428D01*
X166562100Y-123776366D01*
X166509993Y-123773697D01*
X166474774Y-123768849D01*
X166451185Y-123761249D01*
X166433971Y-123750325D01*
X166429121Y-123746086D01*
X166404614Y-123704847D01*
X166403770Y-123656471D01*
X166427120Y-123611711D01*
X166427203Y-123611620D01*
X166440078Y-123600135D01*
X166457777Y-123592073D01*
X166485346Y-123586839D01*
X166527831Y-123583837D01*
X166590279Y-123582473D01*
X166677737Y-123582150D01*
X166901602Y-123582150D01*
X166897094Y-123495730D01*
X166892587Y-123409310D01*
X166570295Y-123405245D01*
X166536989Y-123404809D01*
X166428324Y-123402839D01*
X166345354Y-123399665D01*
X166284626Y-123394345D01*
X166242685Y-123385940D01*
X166216078Y-123373506D01*
X166201349Y-123356103D01*
X166195045Y-123332790D01*
X166193711Y-123302626D01*
X166193719Y-123299476D01*
X166195255Y-123272808D01*
X166201643Y-123251782D01*
X166216032Y-123235731D01*
X166241573Y-123223984D01*
X166281419Y-123215874D01*
X166338718Y-123210730D01*
X166416623Y-123207884D01*
X166518284Y-123206667D01*
X166646852Y-123206410D01*
X167033186Y-123206410D01*
X167064336Y-123246011D01*
G37*
X173291020Y-123206432D02*
X173393663Y-123206688D01*
X173472142Y-123207466D01*
X173530172Y-123209052D01*
X173571469Y-123211732D01*
X173599750Y-123215790D01*
X173618732Y-123221512D01*
X173632129Y-123229183D01*
X173643660Y-123239090D01*
X173646036Y-123241327D01*
X173655680Y-123251364D01*
X173663191Y-123263370D01*
X173668837Y-123280857D01*
X173672883Y-123307334D01*
X173675596Y-123346315D01*
X173677242Y-123401310D01*
X173678088Y-123475830D01*
X173678400Y-123573387D01*
X173678445Y-123697492D01*
X173678396Y-123794401D01*
X173678065Y-123898481D01*
X173677218Y-123978648D01*
X173675624Y-124038398D01*
X173673053Y-124081228D01*
X173669275Y-124110634D01*
X173664058Y-124130112D01*
X173657171Y-124143160D01*
X173648386Y-124153274D01*
X173643947Y-124157504D01*
X173632601Y-124165640D01*
X173616622Y-124171863D01*
X173592377Y-124176430D01*
X173556235Y-124179595D01*
X173504563Y-124181613D01*
X173433728Y-124182739D01*
X173340098Y-124183227D01*
X173220043Y-124183334D01*
X173163981Y-124183318D01*
X173055945Y-124183075D01*
X172972745Y-124182339D01*
X172910749Y-124180854D01*
X172866325Y-124178365D01*
X172835840Y-124174618D01*
X172815662Y-124169357D01*
X172802159Y-124162327D01*
X172791699Y-124153274D01*
X172772093Y-124124518D01*
X172761640Y-124085641D01*
X172768961Y-124053813D01*
X172791699Y-124018008D01*
X172798328Y-124011873D01*
X172811342Y-124003503D01*
X172830135Y-123997345D01*
X172858753Y-123993063D01*
X172901243Y-123990320D01*
X172961651Y-123988778D01*
X173044024Y-123988100D01*
X173152409Y-123987949D01*
X173483060Y-123987949D01*
X173483060Y-123777535D01*
X173268475Y-123777535D01*
X173220789Y-123777341D01*
X173133420Y-123775048D01*
X173070525Y-123769143D01*
X173028274Y-123758353D01*
X173002837Y-123741404D01*
X172990384Y-123717021D01*
X172987084Y-123683931D01*
X172988146Y-123656963D01*
X172995138Y-123627905D01*
X173012171Y-123607467D01*
X173043245Y-123594159D01*
X173092357Y-123586496D01*
X173163508Y-123582989D01*
X173260696Y-123582150D01*
X173484560Y-123582150D01*
X173475546Y-123409310D01*
X173145745Y-123405251D01*
X173062414Y-123404081D01*
X172971268Y-123402158D01*
X172903496Y-123399588D01*
X172855230Y-123396059D01*
X172822602Y-123391261D01*
X172801746Y-123384885D01*
X172788793Y-123376620D01*
X172780784Y-123368095D01*
X172763465Y-123325916D01*
X172768205Y-123278404D01*
X172794533Y-123237055D01*
X172798863Y-123233163D01*
X172810818Y-123224707D01*
X172826932Y-123218247D01*
X172850905Y-123213515D01*
X172886437Y-123210244D01*
X172937227Y-123208165D01*
X173006976Y-123207012D01*
X173099384Y-123206516D01*
X173218150Y-123206410D01*
X173291020Y-123206432D01*
G36*
X173291020Y-123206432D02*
G01*
X173393663Y-123206688D01*
X173472142Y-123207466D01*
X173530172Y-123209052D01*
X173571469Y-123211732D01*
X173599750Y-123215790D01*
X173618732Y-123221512D01*
X173632129Y-123229183D01*
X173643660Y-123239090D01*
X173646036Y-123241327D01*
X173655680Y-123251364D01*
X173663191Y-123263370D01*
X173668837Y-123280857D01*
X173672883Y-123307334D01*
X173675596Y-123346315D01*
X173677242Y-123401310D01*
X173678088Y-123475830D01*
X173678400Y-123573387D01*
X173678445Y-123697492D01*
X173678396Y-123794401D01*
X173678065Y-123898481D01*
X173677218Y-123978648D01*
X173675624Y-124038398D01*
X173673053Y-124081228D01*
X173669275Y-124110634D01*
X173664058Y-124130112D01*
X173657171Y-124143160D01*
X173648386Y-124153274D01*
X173643947Y-124157504D01*
X173632601Y-124165640D01*
X173616622Y-124171863D01*
X173592377Y-124176430D01*
X173556235Y-124179595D01*
X173504563Y-124181613D01*
X173433728Y-124182739D01*
X173340098Y-124183227D01*
X173220043Y-124183334D01*
X173163981Y-124183318D01*
X173055945Y-124183075D01*
X172972745Y-124182339D01*
X172910749Y-124180854D01*
X172866325Y-124178365D01*
X172835840Y-124174618D01*
X172815662Y-124169357D01*
X172802159Y-124162327D01*
X172791699Y-124153274D01*
X172772093Y-124124518D01*
X172761640Y-124085641D01*
X172768961Y-124053813D01*
X172791699Y-124018008D01*
X172798328Y-124011873D01*
X172811342Y-124003503D01*
X172830135Y-123997345D01*
X172858753Y-123993063D01*
X172901243Y-123990320D01*
X172961651Y-123988778D01*
X173044024Y-123988100D01*
X173152409Y-123987949D01*
X173483060Y-123987949D01*
X173483060Y-123777535D01*
X173268475Y-123777535D01*
X173220789Y-123777341D01*
X173133420Y-123775048D01*
X173070525Y-123769143D01*
X173028274Y-123758353D01*
X173002837Y-123741404D01*
X172990384Y-123717021D01*
X172987084Y-123683931D01*
X172988146Y-123656963D01*
X172995138Y-123627905D01*
X173012171Y-123607467D01*
X173043245Y-123594159D01*
X173092357Y-123586496D01*
X173163508Y-123582989D01*
X173260696Y-123582150D01*
X173484560Y-123582150D01*
X173475546Y-123409310D01*
X173145745Y-123405251D01*
X173062414Y-123404081D01*
X172971268Y-123402158D01*
X172903496Y-123399588D01*
X172855230Y-123396059D01*
X172822602Y-123391261D01*
X172801746Y-123384885D01*
X172788793Y-123376620D01*
X172780784Y-123368095D01*
X172763465Y-123325916D01*
X172768205Y-123278404D01*
X172794533Y-123237055D01*
X172798863Y-123233163D01*
X172810818Y-123224707D01*
X172826932Y-123218247D01*
X172850905Y-123213515D01*
X172886437Y-123210244D01*
X172937227Y-123208165D01*
X173006976Y-123207012D01*
X173099384Y-123206516D01*
X173218150Y-123206410D01*
X173291020Y-123206432D01*
G37*
X161885208Y-123218940D02*
X161909119Y-123243585D01*
X161936546Y-123284966D01*
X161969607Y-123345790D01*
X162010420Y-123428763D01*
X162061104Y-123536594D01*
X162080587Y-123578376D01*
X162120193Y-123662496D01*
X162154935Y-123735196D01*
X162182886Y-123792507D01*
X162202120Y-123830455D01*
X162210711Y-123845069D01*
X162212520Y-123844296D01*
X162225823Y-123825727D01*
X162248844Y-123786401D01*
X162278928Y-123730994D01*
X162313422Y-123664180D01*
X162334687Y-123622258D01*
X162373230Y-123548562D01*
X162403170Y-123496617D01*
X162427422Y-123462697D01*
X162448898Y-123443079D01*
X162470512Y-123434040D01*
X162495177Y-123431854D01*
X162509160Y-123432487D01*
X162530616Y-123438088D01*
X162551005Y-123452552D01*
X162573103Y-123479542D01*
X162599689Y-123522725D01*
X162633540Y-123585765D01*
X162677434Y-123672328D01*
X162690392Y-123697963D01*
X162722954Y-123760096D01*
X162749895Y-123808241D01*
X162768710Y-123838049D01*
X162776897Y-123845168D01*
X162778717Y-123840813D01*
X162791198Y-123812975D01*
X162813646Y-123763796D01*
X162844156Y-123697426D01*
X162880823Y-123618014D01*
X162921742Y-123529707D01*
X162957309Y-123453525D01*
X162996749Y-123370995D01*
X163027465Y-123310100D01*
X163051401Y-123267442D01*
X163070502Y-123239625D01*
X163086713Y-123223253D01*
X163101978Y-123214931D01*
X163114506Y-123211080D01*
X163147930Y-123210882D01*
X163184067Y-123231308D01*
X163185798Y-123232620D01*
X163215200Y-123262756D01*
X163229909Y-123292345D01*
X163229971Y-123293197D01*
X163223926Y-123316711D01*
X163206799Y-123362731D01*
X163180493Y-123427096D01*
X163146910Y-123505645D01*
X163107952Y-123594221D01*
X163065522Y-123688661D01*
X163021522Y-123784807D01*
X162977854Y-123878499D01*
X162936420Y-123965576D01*
X162899123Y-124041880D01*
X162867864Y-124103249D01*
X162844546Y-124145525D01*
X162831071Y-124164547D01*
X162785262Y-124182345D01*
X162729748Y-124173876D01*
X162722606Y-124167622D01*
X162701532Y-124138131D01*
X162671973Y-124089190D01*
X162636803Y-124025661D01*
X162598894Y-123952407D01*
X162492686Y-123740397D01*
X162395248Y-123935563D01*
X162382340Y-123961246D01*
X162346421Y-124030940D01*
X162314431Y-124090571D01*
X162289449Y-124134486D01*
X162274556Y-124157032D01*
X162273030Y-124158687D01*
X162235591Y-124179039D01*
X162188911Y-124181280D01*
X162147584Y-124164547D01*
X162144354Y-124160754D01*
X162128031Y-124133294D01*
X162101754Y-124083300D01*
X162067266Y-124014298D01*
X162026310Y-123929814D01*
X161980630Y-123833373D01*
X161931969Y-123728503D01*
X161905022Y-123669759D01*
X161856064Y-123562281D01*
X161818178Y-123477502D01*
X161790187Y-123412353D01*
X161770912Y-123363764D01*
X161759178Y-123328667D01*
X161753805Y-123303992D01*
X161753616Y-123286672D01*
X161757434Y-123273636D01*
X161776948Y-123245834D01*
X161812366Y-123218806D01*
X161813372Y-123218350D01*
X161839453Y-123209030D01*
X161862692Y-123208324D01*
X161885208Y-123218940D01*
G36*
X161885208Y-123218940D02*
G01*
X161909119Y-123243585D01*
X161936546Y-123284966D01*
X161969607Y-123345790D01*
X162010420Y-123428763D01*
X162061104Y-123536594D01*
X162080587Y-123578376D01*
X162120193Y-123662496D01*
X162154935Y-123735196D01*
X162182886Y-123792507D01*
X162202120Y-123830455D01*
X162210711Y-123845069D01*
X162212520Y-123844296D01*
X162225823Y-123825727D01*
X162248844Y-123786401D01*
X162278928Y-123730994D01*
X162313422Y-123664180D01*
X162334687Y-123622258D01*
X162373230Y-123548562D01*
X162403170Y-123496617D01*
X162427422Y-123462697D01*
X162448898Y-123443079D01*
X162470512Y-123434040D01*
X162495177Y-123431854D01*
X162509160Y-123432487D01*
X162530616Y-123438088D01*
X162551005Y-123452552D01*
X162573103Y-123479542D01*
X162599689Y-123522725D01*
X162633540Y-123585765D01*
X162677434Y-123672328D01*
X162690392Y-123697963D01*
X162722954Y-123760096D01*
X162749895Y-123808241D01*
X162768710Y-123838049D01*
X162776897Y-123845168D01*
X162778717Y-123840813D01*
X162791198Y-123812975D01*
X162813646Y-123763796D01*
X162844156Y-123697426D01*
X162880823Y-123618014D01*
X162921742Y-123529707D01*
X162957309Y-123453525D01*
X162996749Y-123370995D01*
X163027465Y-123310100D01*
X163051401Y-123267442D01*
X163070502Y-123239625D01*
X163086713Y-123223253D01*
X163101978Y-123214931D01*
X163114506Y-123211080D01*
X163147930Y-123210882D01*
X163184067Y-123231308D01*
X163185798Y-123232620D01*
X163215200Y-123262756D01*
X163229909Y-123292345D01*
X163229971Y-123293197D01*
X163223926Y-123316711D01*
X163206799Y-123362731D01*
X163180493Y-123427096D01*
X163146910Y-123505645D01*
X163107952Y-123594221D01*
X163065522Y-123688661D01*
X163021522Y-123784807D01*
X162977854Y-123878499D01*
X162936420Y-123965576D01*
X162899123Y-124041880D01*
X162867864Y-124103249D01*
X162844546Y-124145525D01*
X162831071Y-124164547D01*
X162785262Y-124182345D01*
X162729748Y-124173876D01*
X162722606Y-124167622D01*
X162701532Y-124138131D01*
X162671973Y-124089190D01*
X162636803Y-124025661D01*
X162598894Y-123952407D01*
X162492686Y-123740397D01*
X162395248Y-123935563D01*
X162382340Y-123961246D01*
X162346421Y-124030940D01*
X162314431Y-124090571D01*
X162289449Y-124134486D01*
X162274556Y-124157032D01*
X162273030Y-124158687D01*
X162235591Y-124179039D01*
X162188911Y-124181280D01*
X162147584Y-124164547D01*
X162144354Y-124160754D01*
X162128031Y-124133294D01*
X162101754Y-124083300D01*
X162067266Y-124014298D01*
X162026310Y-123929814D01*
X161980630Y-123833373D01*
X161931969Y-123728503D01*
X161905022Y-123669759D01*
X161856064Y-123562281D01*
X161818178Y-123477502D01*
X161790187Y-123412353D01*
X161770912Y-123363764D01*
X161759178Y-123328667D01*
X161753805Y-123303992D01*
X161753616Y-123286672D01*
X161757434Y-123273636D01*
X161776948Y-123245834D01*
X161812366Y-123218806D01*
X161813372Y-123218350D01*
X161839453Y-123209030D01*
X161862692Y-123208324D01*
X161885208Y-123218940D01*
G37*
X171938515Y-123207568D02*
X172026713Y-123214797D01*
X172100338Y-123227576D01*
X172168081Y-123247361D01*
X172263024Y-123291472D01*
X172331132Y-123348298D01*
X172372169Y-123417615D01*
X172385901Y-123499199D01*
X172384653Y-123540802D01*
X172376941Y-123573816D01*
X172357227Y-123602666D01*
X172319986Y-123639080D01*
X172309364Y-123648837D01*
X172277798Y-123676666D01*
X172247984Y-123699260D01*
X172215986Y-123717837D01*
X172177872Y-123733615D01*
X172129708Y-123747812D01*
X172067560Y-123761647D01*
X171987494Y-123776338D01*
X171885576Y-123793103D01*
X171757874Y-123813161D01*
X171733425Y-123817200D01*
X171650442Y-123835334D01*
X171590241Y-123856281D01*
X171555247Y-123879009D01*
X171547886Y-123902487D01*
X171551375Y-123908172D01*
X171575250Y-123928229D01*
X171612695Y-123950375D01*
X171629736Y-123958351D01*
X171658092Y-123967927D01*
X171693221Y-123974287D01*
X171740943Y-123978040D01*
X171807076Y-123979794D01*
X171897439Y-123980158D01*
X171921117Y-123980061D01*
X172011145Y-123978582D01*
X172097602Y-123975619D01*
X172171659Y-123971537D01*
X172224489Y-123966698D01*
X172271767Y-123961282D01*
X172310712Y-123960240D01*
X172335876Y-123966363D01*
X172355998Y-123980576D01*
X172360866Y-123985359D01*
X172382623Y-124027662D01*
X172380865Y-124075130D01*
X172355627Y-124115895D01*
X172328506Y-124131346D01*
X172280599Y-124148248D01*
X172224118Y-124161628D01*
X172219524Y-124162425D01*
X172162716Y-124169370D01*
X172086313Y-124175193D01*
X171999752Y-124179304D01*
X171912469Y-124181113D01*
X171890857Y-124181169D01*
X171759968Y-124177870D01*
X171653390Y-124167211D01*
X171566612Y-124147864D01*
X171495124Y-124118502D01*
X171434413Y-124077798D01*
X171379969Y-124024424D01*
X171353181Y-123989507D01*
X171337702Y-123950169D01*
X171333830Y-123897292D01*
X171334017Y-123881357D01*
X171339173Y-123837846D01*
X171355662Y-123802531D01*
X171389165Y-123761460D01*
X171417406Y-123731984D01*
X171452549Y-123701967D01*
X171492113Y-123677513D01*
X171540347Y-123657202D01*
X171601500Y-123639612D01*
X171679819Y-123623323D01*
X171779554Y-123606913D01*
X171904954Y-123588962D01*
X171965280Y-123579630D01*
X172055752Y-123560246D01*
X172121169Y-123538280D01*
X172160534Y-123514451D01*
X172172850Y-123489482D01*
X172157118Y-123464093D01*
X172112342Y-123439005D01*
X172108287Y-123437389D01*
X172046566Y-123421309D01*
X171963156Y-123410391D01*
X171865389Y-123404852D01*
X171760598Y-123404909D01*
X171656115Y-123410778D01*
X171559273Y-123422675D01*
X171554045Y-123423539D01*
X171489053Y-123433800D01*
X171446114Y-123438608D01*
X171418159Y-123437813D01*
X171398117Y-123431261D01*
X171378918Y-123418801D01*
X171377361Y-123417642D01*
X171344720Y-123377204D01*
X171338338Y-123329939D01*
X171359383Y-123283899D01*
X171365435Y-123277966D01*
X171404862Y-123257810D01*
X171467412Y-123240338D01*
X171547698Y-123225959D01*
X171640337Y-123215084D01*
X171739942Y-123208121D01*
X171841130Y-123205479D01*
X171938515Y-123207568D01*
G36*
X171938515Y-123207568D02*
G01*
X172026713Y-123214797D01*
X172100338Y-123227576D01*
X172168081Y-123247361D01*
X172263024Y-123291472D01*
X172331132Y-123348298D01*
X172372169Y-123417615D01*
X172385901Y-123499199D01*
X172384653Y-123540802D01*
X172376941Y-123573816D01*
X172357227Y-123602666D01*
X172319986Y-123639080D01*
X172309364Y-123648837D01*
X172277798Y-123676666D01*
X172247984Y-123699260D01*
X172215986Y-123717837D01*
X172177872Y-123733615D01*
X172129708Y-123747812D01*
X172067560Y-123761647D01*
X171987494Y-123776338D01*
X171885576Y-123793103D01*
X171757874Y-123813161D01*
X171733425Y-123817200D01*
X171650442Y-123835334D01*
X171590241Y-123856281D01*
X171555247Y-123879009D01*
X171547886Y-123902487D01*
X171551375Y-123908172D01*
X171575250Y-123928229D01*
X171612695Y-123950375D01*
X171629736Y-123958351D01*
X171658092Y-123967927D01*
X171693221Y-123974287D01*
X171740943Y-123978040D01*
X171807076Y-123979794D01*
X171897439Y-123980158D01*
X171921117Y-123980061D01*
X172011145Y-123978582D01*
X172097602Y-123975619D01*
X172171659Y-123971537D01*
X172224489Y-123966698D01*
X172271767Y-123961282D01*
X172310712Y-123960240D01*
X172335876Y-123966363D01*
X172355998Y-123980576D01*
X172360866Y-123985359D01*
X172382623Y-124027662D01*
X172380865Y-124075130D01*
X172355627Y-124115895D01*
X172328506Y-124131346D01*
X172280599Y-124148248D01*
X172224118Y-124161628D01*
X172219524Y-124162425D01*
X172162716Y-124169370D01*
X172086313Y-124175193D01*
X171999752Y-124179304D01*
X171912469Y-124181113D01*
X171890857Y-124181169D01*
X171759968Y-124177870D01*
X171653390Y-124167211D01*
X171566612Y-124147864D01*
X171495124Y-124118502D01*
X171434413Y-124077798D01*
X171379969Y-124024424D01*
X171353181Y-123989507D01*
X171337702Y-123950169D01*
X171333830Y-123897292D01*
X171334017Y-123881357D01*
X171339173Y-123837846D01*
X171355662Y-123802531D01*
X171389165Y-123761460D01*
X171417406Y-123731984D01*
X171452549Y-123701967D01*
X171492113Y-123677513D01*
X171540347Y-123657202D01*
X171601500Y-123639612D01*
X171679819Y-123623323D01*
X171779554Y-123606913D01*
X171904954Y-123588962D01*
X171965280Y-123579630D01*
X172055752Y-123560246D01*
X172121169Y-123538280D01*
X172160534Y-123514451D01*
X172172850Y-123489482D01*
X172157118Y-123464093D01*
X172112342Y-123439005D01*
X172108287Y-123437389D01*
X172046566Y-123421309D01*
X171963156Y-123410391D01*
X171865389Y-123404852D01*
X171760598Y-123404909D01*
X171656115Y-123410778D01*
X171559273Y-123422675D01*
X171554045Y-123423539D01*
X171489053Y-123433800D01*
X171446114Y-123438608D01*
X171418159Y-123437813D01*
X171398117Y-123431261D01*
X171378918Y-123418801D01*
X171377361Y-123417642D01*
X171344720Y-123377204D01*
X171338338Y-123329939D01*
X171359383Y-123283899D01*
X171365435Y-123277966D01*
X171404862Y-123257810D01*
X171467412Y-123240338D01*
X171547698Y-123225959D01*
X171640337Y-123215084D01*
X171739942Y-123208121D01*
X171841130Y-123205479D01*
X171938515Y-123207568D01*
G37*
X166773834Y-116166031D02*
X167017638Y-116188413D01*
X167244132Y-116233551D01*
X167461742Y-116303345D01*
X167678891Y-116399696D01*
X167893845Y-116522715D01*
X168124534Y-116690422D01*
X168338459Y-116884323D01*
X168530911Y-117099618D01*
X168697180Y-117331507D01*
X168832553Y-117575190D01*
X168844841Y-117601258D01*
X168947750Y-117852881D01*
X169025946Y-118114345D01*
X169080439Y-118390646D01*
X169112241Y-118686779D01*
X169122360Y-119007739D01*
X169110056Y-119339528D01*
X169071001Y-119666276D01*
X169004590Y-119972149D01*
X168910227Y-120259317D01*
X168787320Y-120529949D01*
X168635273Y-120786214D01*
X168492450Y-120982000D01*
X168295243Y-121202289D01*
X168080296Y-121390974D01*
X167847703Y-121547993D01*
X167597558Y-121673285D01*
X167329957Y-121766786D01*
X167044992Y-121828437D01*
X167041740Y-121828917D01*
X166986862Y-121833732D01*
X166904049Y-121837304D01*
X166800958Y-121839465D01*
X166685246Y-121840050D01*
X166564572Y-121838891D01*
X166479997Y-121837192D01*
X166354512Y-121833258D01*
X166253958Y-121827626D01*
X166171083Y-121819694D01*
X166098634Y-121808863D01*
X166029357Y-121794530D01*
X165951416Y-121776007D01*
X165870099Y-121754914D01*
X165796556Y-121732787D01*
X165724112Y-121707033D01*
X165646093Y-121675060D01*
X165555825Y-121634278D01*
X165446631Y-121582093D01*
X165311839Y-121515915D01*
X164939036Y-121331677D01*
X165237628Y-120841231D01*
X165276719Y-120777041D01*
X165346950Y-120661810D01*
X165409811Y-120558794D01*
X165463004Y-120471748D01*
X165504233Y-120404432D01*
X165531200Y-120360601D01*
X165541607Y-120344015D01*
X165544502Y-120344510D01*
X165567820Y-120360742D01*
X165608786Y-120394429D01*
X165660927Y-120440345D01*
X165753787Y-120519678D01*
X165919562Y-120636990D01*
X166080403Y-120718771D01*
X166196631Y-120759611D01*
X166393222Y-120801348D01*
X166586378Y-120808746D01*
X166773299Y-120782309D01*
X166951183Y-120722540D01*
X167117230Y-120629943D01*
X167268637Y-120505022D01*
X167352886Y-120413014D01*
X167471574Y-120242831D01*
X167568964Y-120045342D01*
X167645519Y-119819536D01*
X167701707Y-119564401D01*
X167704256Y-119548562D01*
X167716033Y-119445903D01*
X167724800Y-119318351D01*
X167730486Y-119174622D01*
X167733021Y-119023431D01*
X167732333Y-118873493D01*
X167728352Y-118733524D01*
X167721006Y-118612241D01*
X167710225Y-118518357D01*
X167668900Y-118305692D01*
X167599365Y-118057270D01*
X167511915Y-117839781D01*
X167406665Y-117653393D01*
X167283732Y-117498273D01*
X167143235Y-117374590D01*
X166985288Y-117282512D01*
X166810010Y-117222209D01*
X166771121Y-117214724D01*
X166673666Y-117204951D01*
X166559773Y-117201761D01*
X166442204Y-117204979D01*
X166333717Y-117214429D01*
X166247072Y-117229936D01*
X166102732Y-117279313D01*
X165935228Y-117369456D01*
X165786080Y-117488084D01*
X165759756Y-117513073D01*
X165712057Y-117557285D01*
X165678345Y-117587042D01*
X165664649Y-117596941D01*
X165661277Y-117592207D01*
X165640523Y-117562313D01*
X165603028Y-117508033D01*
X165551270Y-117432962D01*
X165487728Y-117340694D01*
X165414877Y-117234823D01*
X165335197Y-117118944D01*
X165009286Y-116644817D01*
X165082092Y-116623004D01*
X165089690Y-116620532D01*
X165139145Y-116600898D01*
X165210447Y-116569239D01*
X165295228Y-116529362D01*
X165385120Y-116485076D01*
X165424292Y-116465496D01*
X165641804Y-116364409D01*
X165842283Y-116286238D01*
X166033438Y-116228985D01*
X166222981Y-116190649D01*
X166418622Y-116169231D01*
X166628072Y-116162731D01*
X166773834Y-116166031D01*
G36*
X166773834Y-116166031D02*
G01*
X167017638Y-116188413D01*
X167244132Y-116233551D01*
X167461742Y-116303345D01*
X167678891Y-116399696D01*
X167893845Y-116522715D01*
X168124534Y-116690422D01*
X168338459Y-116884323D01*
X168530911Y-117099618D01*
X168697180Y-117331507D01*
X168832553Y-117575190D01*
X168844841Y-117601258D01*
X168947750Y-117852881D01*
X169025946Y-118114345D01*
X169080439Y-118390646D01*
X169112241Y-118686779D01*
X169122360Y-119007739D01*
X169110056Y-119339528D01*
X169071001Y-119666276D01*
X169004590Y-119972149D01*
X168910227Y-120259317D01*
X168787320Y-120529949D01*
X168635273Y-120786214D01*
X168492450Y-120982000D01*
X168295243Y-121202289D01*
X168080296Y-121390974D01*
X167847703Y-121547993D01*
X167597558Y-121673285D01*
X167329957Y-121766786D01*
X167044992Y-121828437D01*
X167041740Y-121828917D01*
X166986862Y-121833732D01*
X166904049Y-121837304D01*
X166800958Y-121839465D01*
X166685246Y-121840050D01*
X166564572Y-121838891D01*
X166479997Y-121837192D01*
X166354512Y-121833258D01*
X166253958Y-121827626D01*
X166171083Y-121819694D01*
X166098634Y-121808863D01*
X166029357Y-121794530D01*
X165951416Y-121776007D01*
X165870099Y-121754914D01*
X165796556Y-121732787D01*
X165724112Y-121707033D01*
X165646093Y-121675060D01*
X165555825Y-121634278D01*
X165446631Y-121582093D01*
X165311839Y-121515915D01*
X164939036Y-121331677D01*
X165237628Y-120841231D01*
X165276719Y-120777041D01*
X165346950Y-120661810D01*
X165409811Y-120558794D01*
X165463004Y-120471748D01*
X165504233Y-120404432D01*
X165531200Y-120360601D01*
X165541607Y-120344015D01*
X165544502Y-120344510D01*
X165567820Y-120360742D01*
X165608786Y-120394429D01*
X165660927Y-120440345D01*
X165753787Y-120519678D01*
X165919562Y-120636990D01*
X166080403Y-120718771D01*
X166196631Y-120759611D01*
X166393222Y-120801348D01*
X166586378Y-120808746D01*
X166773299Y-120782309D01*
X166951183Y-120722540D01*
X167117230Y-120629943D01*
X167268637Y-120505022D01*
X167352886Y-120413014D01*
X167471574Y-120242831D01*
X167568964Y-120045342D01*
X167645519Y-119819536D01*
X167701707Y-119564401D01*
X167704256Y-119548562D01*
X167716033Y-119445903D01*
X167724800Y-119318351D01*
X167730486Y-119174622D01*
X167733021Y-119023431D01*
X167732333Y-118873493D01*
X167728352Y-118733524D01*
X167721006Y-118612241D01*
X167710225Y-118518357D01*
X167668900Y-118305692D01*
X167599365Y-118057270D01*
X167511915Y-117839781D01*
X167406665Y-117653393D01*
X167283732Y-117498273D01*
X167143235Y-117374590D01*
X166985288Y-117282512D01*
X166810010Y-117222209D01*
X166771121Y-117214724D01*
X166673666Y-117204951D01*
X166559773Y-117201761D01*
X166442204Y-117204979D01*
X166333717Y-117214429D01*
X166247072Y-117229936D01*
X166102732Y-117279313D01*
X165935228Y-117369456D01*
X165786080Y-117488084D01*
X165759756Y-117513073D01*
X165712057Y-117557285D01*
X165678345Y-117587042D01*
X165664649Y-117596941D01*
X165661277Y-117592207D01*
X165640523Y-117562313D01*
X165603028Y-117508033D01*
X165551270Y-117432962D01*
X165487728Y-117340694D01*
X165414877Y-117234823D01*
X165335197Y-117118944D01*
X165009286Y-116644817D01*
X165082092Y-116623004D01*
X165089690Y-116620532D01*
X165139145Y-116600898D01*
X165210447Y-116569239D01*
X165295228Y-116529362D01*
X165385120Y-116485076D01*
X165424292Y-116465496D01*
X165641804Y-116364409D01*
X165842283Y-116286238D01*
X166033438Y-116228985D01*
X166222981Y-116190649D01*
X166418622Y-116169231D01*
X166628072Y-116162731D01*
X166773834Y-116166031D01*
G37*
X160847105Y-119946537D02*
X160843255Y-120114433D01*
X160832247Y-120262502D01*
X160813229Y-120398798D01*
X160785349Y-120531375D01*
X160747754Y-120668286D01*
X160690743Y-120831936D01*
X160586036Y-121052857D01*
X160457598Y-121250734D01*
X160307393Y-121423697D01*
X160137387Y-121569876D01*
X159949545Y-121687401D01*
X159745832Y-121774402D01*
X159528212Y-121829009D01*
X159525593Y-121829447D01*
X159366553Y-121844750D01*
X159191809Y-121842707D01*
X159013820Y-121824579D01*
X158845046Y-121791624D01*
X158697948Y-121745101D01*
X158635161Y-121716791D01*
X158553387Y-121673761D01*
X158469359Y-121624546D01*
X158391845Y-121574563D01*
X158329612Y-121529229D01*
X158291429Y-121493960D01*
X158282663Y-121484277D01*
X158272214Y-121480892D01*
X158265229Y-121497696D01*
X158260082Y-121540045D01*
X158255143Y-121613295D01*
X158246072Y-121765929D01*
X156856360Y-121775433D01*
X156904439Y-121693393D01*
X156907305Y-121688543D01*
X156921285Y-121665772D01*
X156933969Y-121645487D01*
X156945423Y-121625925D01*
X156955715Y-121605324D01*
X156964915Y-121581920D01*
X156973090Y-121553953D01*
X156980309Y-121519660D01*
X156986640Y-121477278D01*
X156992151Y-121425046D01*
X156996910Y-121361200D01*
X157000985Y-121283979D01*
X157004446Y-121191620D01*
X157007359Y-121082361D01*
X157009794Y-120954440D01*
X157011818Y-120806094D01*
X157013501Y-120635562D01*
X157014909Y-120441081D01*
X157016112Y-120220888D01*
X157017177Y-119973221D01*
X157018173Y-119696318D01*
X157019168Y-119388417D01*
X157020231Y-119047756D01*
X157021167Y-118754584D01*
X158336786Y-118754584D01*
X158336786Y-120640556D01*
X158427500Y-120700057D01*
X158462386Y-120721491D01*
X158542265Y-120764311D01*
X158618000Y-120798410D01*
X158651168Y-120809955D01*
X158756705Y-120833004D01*
X158890143Y-120844773D01*
X158957996Y-120847222D01*
X159020980Y-120846666D01*
X159067866Y-120840375D01*
X159109920Y-120826626D01*
X159158409Y-120803692D01*
X159251595Y-120742259D01*
X159332324Y-120655358D01*
X159396945Y-120543369D01*
X159446073Y-120404539D01*
X159480321Y-120237111D01*
X159500306Y-120039329D01*
X159506641Y-119809440D01*
X159506333Y-119757175D01*
X159497225Y-119515015D01*
X159475109Y-119304302D01*
X159439447Y-119122814D01*
X159389701Y-118968327D01*
X159325333Y-118838619D01*
X159245805Y-118731466D01*
X159212812Y-118698763D01*
X159110560Y-118630632D01*
X158990526Y-118589173D01*
X158857910Y-118574622D01*
X158717913Y-118587214D01*
X158575733Y-118627185D01*
X158436572Y-118694771D01*
X158336786Y-118754584D01*
X157021167Y-118754584D01*
X157021429Y-118672572D01*
X157030500Y-115905786D01*
X157751679Y-115901042D01*
X157804124Y-115900723D01*
X157958429Y-115900089D01*
X158099564Y-115899961D01*
X158223677Y-115900311D01*
X158326915Y-115901112D01*
X158405426Y-115902340D01*
X158455357Y-115903967D01*
X158472857Y-115905967D01*
X158470618Y-115912305D01*
X158453917Y-115942356D01*
X158426255Y-115986057D01*
X158423495Y-115990235D01*
X158402048Y-116023977D01*
X158384065Y-116056806D01*
X158369242Y-116092105D01*
X158357274Y-116133255D01*
X158347856Y-116183638D01*
X158340683Y-116246634D01*
X158335450Y-116325627D01*
X158331852Y-116423997D01*
X158329584Y-116545126D01*
X158328342Y-116692396D01*
X158327821Y-116869188D01*
X158327714Y-117078884D01*
X158327905Y-117242603D01*
X158328487Y-117403339D01*
X158329419Y-117549083D01*
X158330659Y-117676286D01*
X158332164Y-117781400D01*
X158333893Y-117860875D01*
X158335802Y-117911163D01*
X158337850Y-117928714D01*
X158344455Y-117925990D01*
X158373490Y-117906807D01*
X158414957Y-117875303D01*
X158475072Y-117832936D01*
X158588021Y-117770511D01*
X158717116Y-117714828D01*
X158850309Y-117671525D01*
X158962215Y-117649444D01*
X159101587Y-117635368D01*
X159252426Y-117630492D01*
X159403093Y-117634820D01*
X159541946Y-117648359D01*
X159657345Y-117671115D01*
X159774847Y-117709447D01*
X159970869Y-117802371D01*
X160152371Y-117925908D01*
X160316004Y-118077212D01*
X160458419Y-118253440D01*
X160576270Y-118451746D01*
X160605528Y-118512556D01*
X160687518Y-118717670D01*
X160751619Y-118940285D01*
X160798642Y-119184325D01*
X160829395Y-119453713D01*
X160844690Y-119752374D01*
X160845400Y-119809440D01*
X160847105Y-119946537D01*
G36*
X160847105Y-119946537D02*
G01*
X160843255Y-120114433D01*
X160832247Y-120262502D01*
X160813229Y-120398798D01*
X160785349Y-120531375D01*
X160747754Y-120668286D01*
X160690743Y-120831936D01*
X160586036Y-121052857D01*
X160457598Y-121250734D01*
X160307393Y-121423697D01*
X160137387Y-121569876D01*
X159949545Y-121687401D01*
X159745832Y-121774402D01*
X159528212Y-121829009D01*
X159525593Y-121829447D01*
X159366553Y-121844750D01*
X159191809Y-121842707D01*
X159013820Y-121824579D01*
X158845046Y-121791624D01*
X158697948Y-121745101D01*
X158635161Y-121716791D01*
X158553387Y-121673761D01*
X158469359Y-121624546D01*
X158391845Y-121574563D01*
X158329612Y-121529229D01*
X158291429Y-121493960D01*
X158282663Y-121484277D01*
X158272214Y-121480892D01*
X158265229Y-121497696D01*
X158260082Y-121540045D01*
X158255143Y-121613295D01*
X158246072Y-121765929D01*
X156856360Y-121775433D01*
X156904439Y-121693393D01*
X156907305Y-121688543D01*
X156921285Y-121665772D01*
X156933969Y-121645487D01*
X156945423Y-121625925D01*
X156955715Y-121605324D01*
X156964915Y-121581920D01*
X156973090Y-121553953D01*
X156980309Y-121519660D01*
X156986640Y-121477278D01*
X156992151Y-121425046D01*
X156996910Y-121361200D01*
X157000985Y-121283979D01*
X157004446Y-121191620D01*
X157007359Y-121082361D01*
X157009794Y-120954440D01*
X157011818Y-120806094D01*
X157013501Y-120635562D01*
X157014909Y-120441081D01*
X157016112Y-120220888D01*
X157017177Y-119973221D01*
X157018173Y-119696318D01*
X157019168Y-119388417D01*
X157020231Y-119047756D01*
X157021167Y-118754584D01*
X158336786Y-118754584D01*
X158336786Y-120640556D01*
X158427500Y-120700057D01*
X158462386Y-120721491D01*
X158542265Y-120764311D01*
X158618000Y-120798410D01*
X158651168Y-120809955D01*
X158756705Y-120833004D01*
X158890143Y-120844773D01*
X158957996Y-120847222D01*
X159020980Y-120846666D01*
X159067866Y-120840375D01*
X159109920Y-120826626D01*
X159158409Y-120803692D01*
X159251595Y-120742259D01*
X159332324Y-120655358D01*
X159396945Y-120543369D01*
X159446073Y-120404539D01*
X159480321Y-120237111D01*
X159500306Y-120039329D01*
X159506641Y-119809440D01*
X159506333Y-119757175D01*
X159497225Y-119515015D01*
X159475109Y-119304302D01*
X159439447Y-119122814D01*
X159389701Y-118968327D01*
X159325333Y-118838619D01*
X159245805Y-118731466D01*
X159212812Y-118698763D01*
X159110560Y-118630632D01*
X158990526Y-118589173D01*
X158857910Y-118574622D01*
X158717913Y-118587214D01*
X158575733Y-118627185D01*
X158436572Y-118694771D01*
X158336786Y-118754584D01*
X157021167Y-118754584D01*
X157021429Y-118672572D01*
X157030500Y-115905786D01*
X157751679Y-115901042D01*
X157804124Y-115900723D01*
X157958429Y-115900089D01*
X158099564Y-115899961D01*
X158223677Y-115900311D01*
X158326915Y-115901112D01*
X158405426Y-115902340D01*
X158455357Y-115903967D01*
X158472857Y-115905967D01*
X158470618Y-115912305D01*
X158453917Y-115942356D01*
X158426255Y-115986057D01*
X158423495Y-115990235D01*
X158402048Y-116023977D01*
X158384065Y-116056806D01*
X158369242Y-116092105D01*
X158357274Y-116133255D01*
X158347856Y-116183638D01*
X158340683Y-116246634D01*
X158335450Y-116325627D01*
X158331852Y-116423997D01*
X158329584Y-116545126D01*
X158328342Y-116692396D01*
X158327821Y-116869188D01*
X158327714Y-117078884D01*
X158327905Y-117242603D01*
X158328487Y-117403339D01*
X158329419Y-117549083D01*
X158330659Y-117676286D01*
X158332164Y-117781400D01*
X158333893Y-117860875D01*
X158335802Y-117911163D01*
X158337850Y-117928714D01*
X158344455Y-117925990D01*
X158373490Y-117906807D01*
X158414957Y-117875303D01*
X158475072Y-117832936D01*
X158588021Y-117770511D01*
X158717116Y-117714828D01*
X158850309Y-117671525D01*
X158962215Y-117649444D01*
X159101587Y-117635368D01*
X159252426Y-117630492D01*
X159403093Y-117634820D01*
X159541946Y-117648359D01*
X159657345Y-117671115D01*
X159774847Y-117709447D01*
X159970869Y-117802371D01*
X160152371Y-117925908D01*
X160316004Y-118077212D01*
X160458419Y-118253440D01*
X160576270Y-118451746D01*
X160605528Y-118512556D01*
X160687518Y-118717670D01*
X160751619Y-118940285D01*
X160798642Y-119184325D01*
X160829395Y-119453713D01*
X160844690Y-119752374D01*
X160845400Y-119809440D01*
X160847105Y-119946537D01*
G37*
X164947990Y-120517437D02*
X164939842Y-120663722D01*
X164922232Y-120799833D01*
X164895659Y-120913214D01*
X164853259Y-121029867D01*
X164754976Y-121222110D01*
X164629350Y-121391247D01*
X164477681Y-121536126D01*
X164301271Y-121655594D01*
X164101420Y-121748499D01*
X163879429Y-121813689D01*
X163788907Y-121828392D01*
X163659552Y-121838611D01*
X163518675Y-121840909D01*
X163378050Y-121835472D01*
X163249449Y-121822485D01*
X163144643Y-121802133D01*
X163091979Y-121786109D01*
X162972369Y-121739219D01*
X162850783Y-121679688D01*
X162739765Y-121613971D01*
X162651859Y-121548524D01*
X162650778Y-121547579D01*
X162602607Y-121506736D01*
X162565545Y-121477653D01*
X162547537Y-121466572D01*
X162545568Y-121469217D01*
X162541113Y-121497794D01*
X162538018Y-121551094D01*
X162536857Y-121620786D01*
X162536857Y-121775000D01*
X161856500Y-121775000D01*
X161838389Y-121774997D01*
X161686490Y-121774731D01*
X161547078Y-121774070D01*
X161424118Y-121773062D01*
X161321579Y-121771758D01*
X161243426Y-121770205D01*
X161193625Y-121768454D01*
X161176143Y-121766553D01*
X161176550Y-121764893D01*
X161187988Y-121740377D01*
X161211962Y-121694317D01*
X161244179Y-121635018D01*
X161312215Y-121511929D01*
X161322190Y-120296689D01*
X162609429Y-120296689D01*
X162609935Y-120392703D01*
X162612387Y-120493587D01*
X162617190Y-120566507D01*
X162624695Y-120616212D01*
X162635250Y-120647449D01*
X162648828Y-120669755D01*
X162699962Y-120730561D01*
X162768475Y-120793863D01*
X162843568Y-120850265D01*
X162914440Y-120890370D01*
X162953761Y-120905085D01*
X163044302Y-120924677D01*
X163162555Y-120934694D01*
X163287232Y-120933177D01*
X163405627Y-120912574D01*
X163504449Y-120870011D01*
X163589948Y-120803571D01*
X163614000Y-120778995D01*
X163676622Y-120695185D01*
X163710504Y-120604850D01*
X163720679Y-120496151D01*
X163717922Y-120438725D01*
X163690661Y-120320507D01*
X163633390Y-120219039D01*
X163545068Y-120133179D01*
X163424651Y-120061784D01*
X163271097Y-120003714D01*
X163209193Y-119988475D01*
X163134251Y-119978041D01*
X163039937Y-119972246D01*
X162917857Y-119970298D01*
X162898026Y-119970299D01*
X162806696Y-119971414D01*
X162728244Y-119974108D01*
X162670471Y-119978029D01*
X162641179Y-119982824D01*
X162637808Y-119984380D01*
X162626910Y-119994154D01*
X162619192Y-120013794D01*
X162614119Y-120048585D01*
X162611157Y-120103809D01*
X162609772Y-120184750D01*
X162609429Y-120296689D01*
X161322190Y-120296689D01*
X161322714Y-120232857D01*
X161324275Y-120046561D01*
X161326458Y-119808965D01*
X161328750Y-119602698D01*
X161331335Y-119424842D01*
X161334400Y-119272481D01*
X161338128Y-119142696D01*
X161342705Y-119032572D01*
X161348316Y-118939190D01*
X161355147Y-118859635D01*
X161363383Y-118790988D01*
X161373208Y-118730333D01*
X161384808Y-118674752D01*
X161398368Y-118621329D01*
X161414073Y-118567146D01*
X161432109Y-118509286D01*
X161503161Y-118327898D01*
X161600464Y-118160258D01*
X161721641Y-118016732D01*
X161867803Y-117896570D01*
X162040057Y-117799020D01*
X162239515Y-117723331D01*
X162467285Y-117668753D01*
X162724477Y-117634535D01*
X162814368Y-117627730D01*
X162965760Y-117622755D01*
X163115814Y-117627235D01*
X163271554Y-117641927D01*
X163440005Y-117667584D01*
X163628193Y-117704962D01*
X163843143Y-117754818D01*
X163892828Y-117766881D01*
X164017601Y-117796565D01*
X164135861Y-117823898D01*
X164240436Y-117847263D01*
X164324154Y-117865047D01*
X164379845Y-117875636D01*
X164508333Y-117896740D01*
X164327695Y-118334549D01*
X164282512Y-118443859D01*
X164238061Y-118550969D01*
X164199923Y-118642418D01*
X164169969Y-118713733D01*
X164150071Y-118760437D01*
X164142103Y-118778058D01*
X164140850Y-118778310D01*
X164117758Y-118770443D01*
X164072353Y-118750283D01*
X164012824Y-118721417D01*
X163889096Y-118665203D01*
X163718837Y-118603740D01*
X163544578Y-118556670D01*
X163373133Y-118525177D01*
X163211317Y-118510443D01*
X163065944Y-118513650D01*
X162943829Y-118535979D01*
X162858601Y-118571409D01*
X162761809Y-118644017D01*
X162687297Y-118742518D01*
X162637199Y-118863883D01*
X162613649Y-119005080D01*
X162605355Y-119135215D01*
X163038285Y-119136400D01*
X163184285Y-119137624D01*
X163345771Y-119141972D01*
X163483725Y-119150178D01*
X163605281Y-119163039D01*
X163717577Y-119181354D01*
X163827747Y-119205919D01*
X163942929Y-119237533D01*
X164115268Y-119297709D01*
X164317975Y-119396806D01*
X164495876Y-119518190D01*
X164647217Y-119660155D01*
X164770243Y-119820993D01*
X164863199Y-119998997D01*
X164924330Y-120192460D01*
X164933904Y-120244565D01*
X164946177Y-120373533D01*
X164947722Y-120496151D01*
X164947990Y-120517437D01*
G36*
X164947990Y-120517437D02*
G01*
X164939842Y-120663722D01*
X164922232Y-120799833D01*
X164895659Y-120913214D01*
X164853259Y-121029867D01*
X164754976Y-121222110D01*
X164629350Y-121391247D01*
X164477681Y-121536126D01*
X164301271Y-121655594D01*
X164101420Y-121748499D01*
X163879429Y-121813689D01*
X163788907Y-121828392D01*
X163659552Y-121838611D01*
X163518675Y-121840909D01*
X163378050Y-121835472D01*
X163249449Y-121822485D01*
X163144643Y-121802133D01*
X163091979Y-121786109D01*
X162972369Y-121739219D01*
X162850783Y-121679688D01*
X162739765Y-121613971D01*
X162651859Y-121548524D01*
X162650778Y-121547579D01*
X162602607Y-121506736D01*
X162565545Y-121477653D01*
X162547537Y-121466572D01*
X162545568Y-121469217D01*
X162541113Y-121497794D01*
X162538018Y-121551094D01*
X162536857Y-121620786D01*
X162536857Y-121775000D01*
X161856500Y-121775000D01*
X161838389Y-121774997D01*
X161686490Y-121774731D01*
X161547078Y-121774070D01*
X161424118Y-121773062D01*
X161321579Y-121771758D01*
X161243426Y-121770205D01*
X161193625Y-121768454D01*
X161176143Y-121766553D01*
X161176550Y-121764893D01*
X161187988Y-121740377D01*
X161211962Y-121694317D01*
X161244179Y-121635018D01*
X161312215Y-121511929D01*
X161322190Y-120296689D01*
X162609429Y-120296689D01*
X162609935Y-120392703D01*
X162612387Y-120493587D01*
X162617190Y-120566507D01*
X162624695Y-120616212D01*
X162635250Y-120647449D01*
X162648828Y-120669755D01*
X162699962Y-120730561D01*
X162768475Y-120793863D01*
X162843568Y-120850265D01*
X162914440Y-120890370D01*
X162953761Y-120905085D01*
X163044302Y-120924677D01*
X163162555Y-120934694D01*
X163287232Y-120933177D01*
X163405627Y-120912574D01*
X163504449Y-120870011D01*
X163589948Y-120803571D01*
X163614000Y-120778995D01*
X163676622Y-120695185D01*
X163710504Y-120604850D01*
X163720679Y-120496151D01*
X163717922Y-120438725D01*
X163690661Y-120320507D01*
X163633390Y-120219039D01*
X163545068Y-120133179D01*
X163424651Y-120061784D01*
X163271097Y-120003714D01*
X163209193Y-119988475D01*
X163134251Y-119978041D01*
X163039937Y-119972246D01*
X162917857Y-119970298D01*
X162898026Y-119970299D01*
X162806696Y-119971414D01*
X162728244Y-119974108D01*
X162670471Y-119978029D01*
X162641179Y-119982824D01*
X162637808Y-119984380D01*
X162626910Y-119994154D01*
X162619192Y-120013794D01*
X162614119Y-120048585D01*
X162611157Y-120103809D01*
X162609772Y-120184750D01*
X162609429Y-120296689D01*
X161322190Y-120296689D01*
X161322714Y-120232857D01*
X161324275Y-120046561D01*
X161326458Y-119808965D01*
X161328750Y-119602698D01*
X161331335Y-119424842D01*
X161334400Y-119272481D01*
X161338128Y-119142696D01*
X161342705Y-119032572D01*
X161348316Y-118939190D01*
X161355147Y-118859635D01*
X161363383Y-118790988D01*
X161373208Y-118730333D01*
X161384808Y-118674752D01*
X161398368Y-118621329D01*
X161414073Y-118567146D01*
X161432109Y-118509286D01*
X161503161Y-118327898D01*
X161600464Y-118160258D01*
X161721641Y-118016732D01*
X161867803Y-117896570D01*
X162040057Y-117799020D01*
X162239515Y-117723331D01*
X162467285Y-117668753D01*
X162724477Y-117634535D01*
X162814368Y-117627730D01*
X162965760Y-117622755D01*
X163115814Y-117627235D01*
X163271554Y-117641927D01*
X163440005Y-117667584D01*
X163628193Y-117704962D01*
X163843143Y-117754818D01*
X163892828Y-117766881D01*
X164017601Y-117796565D01*
X164135861Y-117823898D01*
X164240436Y-117847263D01*
X164324154Y-117865047D01*
X164379845Y-117875636D01*
X164508333Y-117896740D01*
X164327695Y-118334549D01*
X164282512Y-118443859D01*
X164238061Y-118550969D01*
X164199923Y-118642418D01*
X164169969Y-118713733D01*
X164150071Y-118760437D01*
X164142103Y-118778058D01*
X164140850Y-118778310D01*
X164117758Y-118770443D01*
X164072353Y-118750283D01*
X164012824Y-118721417D01*
X163889096Y-118665203D01*
X163718837Y-118603740D01*
X163544578Y-118556670D01*
X163373133Y-118525177D01*
X163211317Y-118510443D01*
X163065944Y-118513650D01*
X162943829Y-118535979D01*
X162858601Y-118571409D01*
X162761809Y-118644017D01*
X162687297Y-118742518D01*
X162637199Y-118863883D01*
X162613649Y-119005080D01*
X162605355Y-119135215D01*
X163038285Y-119136400D01*
X163184285Y-119137624D01*
X163345771Y-119141972D01*
X163483725Y-119150178D01*
X163605281Y-119163039D01*
X163717577Y-119181354D01*
X163827747Y-119205919D01*
X163942929Y-119237533D01*
X164115268Y-119297709D01*
X164317975Y-119396806D01*
X164495876Y-119518190D01*
X164647217Y-119660155D01*
X164770243Y-119820993D01*
X164863199Y-119998997D01*
X164924330Y-120192460D01*
X164933904Y-120244565D01*
X164946177Y-120373533D01*
X164947722Y-120496151D01*
X164947990Y-120517437D01*
G37*
X177119428Y-121810860D02*
X177117560Y-121951553D01*
X177115241Y-122072746D01*
X177112425Y-122175940D01*
X177109064Y-122262635D01*
X177105110Y-122334332D01*
X177100517Y-122392530D01*
X177095238Y-122438730D01*
X177089225Y-122474433D01*
X177082430Y-122501137D01*
X177074808Y-122520345D01*
X177066309Y-122533555D01*
X177056889Y-122542268D01*
X177046498Y-122547985D01*
X177035090Y-122552206D01*
X177022618Y-122556430D01*
X177009034Y-122562159D01*
X177001391Y-122565030D01*
X176987371Y-122568165D01*
X176966538Y-122571037D01*
X176937421Y-122573659D01*
X176898544Y-122576040D01*
X176848434Y-122578194D01*
X176785617Y-122580130D01*
X176708620Y-122581862D01*
X176615969Y-122583400D01*
X176506190Y-122584756D01*
X176377810Y-122585941D01*
X176229354Y-122586968D01*
X176059350Y-122587846D01*
X175866323Y-122588589D01*
X175648800Y-122589207D01*
X175405308Y-122589713D01*
X175134371Y-122590116D01*
X174834517Y-122590430D01*
X174504273Y-122590665D01*
X174142164Y-122590834D01*
X173746716Y-122590947D01*
X173316456Y-122591016D01*
X173180108Y-122591029D01*
X172759186Y-122591038D01*
X172372647Y-122590985D01*
X172019034Y-122590860D01*
X171696890Y-122590652D01*
X171404761Y-122590351D01*
X171141188Y-122589946D01*
X170904716Y-122589426D01*
X170693890Y-122588782D01*
X170507251Y-122588002D01*
X170343345Y-122587076D01*
X170200715Y-122585993D01*
X170077905Y-122584743D01*
X169973458Y-122583315D01*
X169885919Y-122581698D01*
X169813830Y-122579883D01*
X169755736Y-122577858D01*
X169710180Y-122575613D01*
X169675707Y-122573137D01*
X169650859Y-122570420D01*
X169634181Y-122567451D01*
X169624217Y-122564220D01*
X169621046Y-122562782D01*
X169608067Y-122558058D01*
X169596165Y-122554608D01*
X169585292Y-122550930D01*
X169575398Y-122545521D01*
X169566437Y-122536879D01*
X169558359Y-122523502D01*
X169551116Y-122503886D01*
X169544661Y-122476531D01*
X169538945Y-122439933D01*
X169533919Y-122392590D01*
X169529536Y-122333000D01*
X169525747Y-122259659D01*
X169522504Y-122171067D01*
X169519759Y-122065720D01*
X169517463Y-121942117D01*
X169515568Y-121798754D01*
X169514946Y-121732367D01*
X169993373Y-121732367D01*
X169993898Y-121738725D01*
X170003521Y-121743877D01*
X170025264Y-121747950D01*
X170062148Y-121751070D01*
X170117193Y-121753365D01*
X170193419Y-121754959D01*
X170293848Y-121755979D01*
X170421501Y-121756551D01*
X170579398Y-121756802D01*
X170770559Y-121756857D01*
X171571314Y-121756857D01*
X171503621Y-121634393D01*
X171435929Y-121511929D01*
X171435929Y-117955929D01*
X171503621Y-117833465D01*
X171571314Y-117711000D01*
X170139993Y-117711000D01*
X170134818Y-119593322D01*
X170129643Y-121475643D01*
X170078903Y-121584008D01*
X170052151Y-121637719D01*
X170021860Y-121691524D01*
X169998984Y-121724615D01*
X169998926Y-121724679D01*
X169993373Y-121732367D01*
X169514946Y-121732367D01*
X169514026Y-121634129D01*
X169512789Y-121446740D01*
X169511808Y-121235085D01*
X169511035Y-120997661D01*
X169510422Y-120732966D01*
X169509921Y-120439498D01*
X169509484Y-120115753D01*
X169509061Y-119760230D01*
X169508605Y-119371426D01*
X169508068Y-118947840D01*
X169507999Y-118896560D01*
X169507400Y-118475657D01*
X169506827Y-118089362D01*
X169506323Y-117736172D01*
X169505930Y-117414584D01*
X169505690Y-117123094D01*
X169505646Y-116860200D01*
X169505840Y-116624398D01*
X169506314Y-116414186D01*
X169507112Y-116228060D01*
X169508274Y-116064517D01*
X169509844Y-115922055D01*
X169511864Y-115799170D01*
X169514377Y-115694359D01*
X169517424Y-115606119D01*
X169521049Y-115532947D01*
X169525293Y-115473340D01*
X169530198Y-115425795D01*
X169535808Y-115388808D01*
X169542165Y-115360878D01*
X169549311Y-115340500D01*
X169557288Y-115326171D01*
X169566139Y-115316390D01*
X169575906Y-115309651D01*
X169586632Y-115304454D01*
X169598358Y-115299293D01*
X169611128Y-115292667D01*
X169614865Y-115290556D01*
X169671405Y-115270118D01*
X169733300Y-115261717D01*
X169803072Y-115261720D01*
X169804234Y-115420467D01*
X169804529Y-115438735D01*
X169826706Y-115624427D01*
X169883188Y-115799147D01*
X169973192Y-115961043D01*
X170095932Y-116108265D01*
X170161798Y-116168311D01*
X170308454Y-116267838D01*
X170468470Y-116337242D01*
X170637185Y-116376487D01*
X170809939Y-116385537D01*
X170982072Y-116364353D01*
X171148922Y-116312899D01*
X171286080Y-116241429D01*
X171893127Y-116241429D01*
X171972957Y-116298862D01*
X172040470Y-116352841D01*
X172135603Y-116440886D01*
X172243507Y-116551230D01*
X172360097Y-116679670D01*
X172481285Y-116822000D01*
X172512494Y-116860062D01*
X172565629Y-116925343D01*
X172635083Y-117010988D01*
X172718556Y-117114140D01*
X172813746Y-117231939D01*
X172918354Y-117361528D01*
X173030077Y-117500047D01*
X173146615Y-117644639D01*
X173200067Y-117711000D01*
X173265667Y-117792444D01*
X173384932Y-117940603D01*
X173502109Y-118086260D01*
X173614896Y-118226554D01*
X173720994Y-118358627D01*
X173818101Y-118479621D01*
X173903916Y-118586678D01*
X173976138Y-118676938D01*
X174032466Y-118747543D01*
X174070599Y-118795635D01*
X174088237Y-118818355D01*
X174089692Y-118826893D01*
X174084850Y-118843132D01*
X174072302Y-118868679D01*
X174050797Y-118905347D01*
X174019080Y-118954949D01*
X173975900Y-119019295D01*
X173920005Y-119100198D01*
X173850141Y-119199471D01*
X173765057Y-119318926D01*
X173663499Y-119460374D01*
X173544216Y-119625629D01*
X173405954Y-119816501D01*
X173247462Y-120034804D01*
X173121177Y-120208571D01*
X172967105Y-120420407D01*
X172831580Y-120606440D01*
X172713024Y-120768734D01*
X172609861Y-120909354D01*
X172520515Y-121030365D01*
X172443411Y-121133832D01*
X172376972Y-121221818D01*
X172319623Y-121296390D01*
X172269786Y-121359610D01*
X172225886Y-121413545D01*
X172186347Y-121460258D01*
X172149593Y-121501814D01*
X172114047Y-121540279D01*
X172078135Y-121577715D01*
X172040278Y-121616189D01*
X171900771Y-121756857D01*
X173776357Y-121756933D01*
X173770464Y-121643275D01*
X173770179Y-121637564D01*
X173769060Y-121592127D01*
X173771181Y-121548593D01*
X173777958Y-121504576D01*
X173790812Y-121457693D01*
X173811160Y-121405558D01*
X173840420Y-121345786D01*
X173880012Y-121275994D01*
X173931353Y-121193797D01*
X173995862Y-121096809D01*
X174074957Y-120982647D01*
X174170057Y-120848925D01*
X174282581Y-120693260D01*
X174413946Y-120513265D01*
X174565572Y-120306557D01*
X175100786Y-119577911D01*
X175105501Y-120422755D01*
X175105919Y-120501562D01*
X175106656Y-120713832D01*
X175106321Y-120894381D01*
X175104519Y-121046628D01*
X175100856Y-121173988D01*
X175094936Y-121279878D01*
X175086367Y-121367715D01*
X175074751Y-121440916D01*
X175059697Y-121502898D01*
X175040807Y-121557076D01*
X175017689Y-121606869D01*
X174989947Y-121655693D01*
X174957187Y-121706964D01*
X174924256Y-121756857D01*
X176635704Y-121756857D01*
X176591496Y-121697893D01*
X176584572Y-121688565D01*
X176529221Y-121603070D01*
X176491064Y-121516644D01*
X176466008Y-121417613D01*
X176449959Y-121294304D01*
X176449518Y-121288929D01*
X176447189Y-121238067D01*
X176445087Y-121153206D01*
X176443219Y-121036286D01*
X176441596Y-120889246D01*
X176440227Y-120714026D01*
X176439120Y-120512563D01*
X176438285Y-120286798D01*
X176437732Y-120038669D01*
X176437468Y-119770115D01*
X176437503Y-119483077D01*
X176437847Y-119179492D01*
X176438508Y-118861300D01*
X176439209Y-118575881D01*
X176439958Y-118265196D01*
X176440696Y-117987226D01*
X176441515Y-117740022D01*
X176442507Y-117521637D01*
X176443766Y-117330125D01*
X176445383Y-117163537D01*
X176447452Y-117019925D01*
X176450065Y-116897344D01*
X176453315Y-116793844D01*
X176457293Y-116707479D01*
X176462094Y-116636301D01*
X176467809Y-116578363D01*
X176474532Y-116531717D01*
X176482354Y-116494416D01*
X176491368Y-116464512D01*
X176501667Y-116440058D01*
X176513344Y-116419106D01*
X176526492Y-116399709D01*
X176541202Y-116379920D01*
X176557567Y-116357791D01*
X176573396Y-116335615D01*
X176603991Y-116291769D01*
X176622317Y-116264107D01*
X176622759Y-116262949D01*
X176616360Y-116257718D01*
X176593779Y-116253353D01*
X176552502Y-116249788D01*
X176490017Y-116246954D01*
X176403812Y-116244787D01*
X176291373Y-116243217D01*
X176150188Y-116242179D01*
X175977745Y-116241605D01*
X175771530Y-116241429D01*
X174907060Y-116241429D01*
X174952621Y-116295574D01*
X174979026Y-116332763D01*
X175022978Y-116420446D01*
X175061495Y-116529499D01*
X175090893Y-116650468D01*
X175092766Y-116661952D01*
X175098341Y-116722492D01*
X175102563Y-116816056D01*
X175105443Y-116943292D01*
X175106992Y-117104846D01*
X175107221Y-117301368D01*
X175106143Y-117533504D01*
X175100786Y-118308508D01*
X174547429Y-117608742D01*
X174531579Y-117588698D01*
X174391253Y-117411052D01*
X174271453Y-117258914D01*
X174170270Y-117129698D01*
X174085800Y-117020817D01*
X174016135Y-116929685D01*
X173959368Y-116853714D01*
X173913594Y-116790317D01*
X173876906Y-116736908D01*
X173847396Y-116690901D01*
X173823159Y-116649707D01*
X173802288Y-116610741D01*
X173782877Y-116571415D01*
X173753015Y-116501805D01*
X173733724Y-116428372D01*
X173728592Y-116349165D01*
X173729108Y-116241429D01*
X171893127Y-116241429D01*
X171286080Y-116241429D01*
X171305830Y-116231138D01*
X171448136Y-116119032D01*
X171487695Y-116079510D01*
X171604620Y-115933175D01*
X171687588Y-115774367D01*
X171737043Y-115602063D01*
X171753429Y-115415238D01*
X171753429Y-115261715D01*
X174357830Y-115261714D01*
X174520540Y-115261707D01*
X174870089Y-115261660D01*
X175185856Y-115261626D01*
X175469588Y-115261673D01*
X175723031Y-115261872D01*
X175947931Y-115262291D01*
X176146034Y-115262998D01*
X176319087Y-115264065D01*
X176468835Y-115265558D01*
X176597025Y-115267547D01*
X176705403Y-115270102D01*
X176795715Y-115273291D01*
X176869707Y-115277183D01*
X176929125Y-115281848D01*
X176975716Y-115287354D01*
X177011226Y-115293771D01*
X177037400Y-115301167D01*
X177055986Y-115309611D01*
X177068728Y-115319173D01*
X177077374Y-115329922D01*
X177083670Y-115341926D01*
X177089360Y-115355255D01*
X177096193Y-115369978D01*
X177096316Y-115370218D01*
X177099633Y-115379856D01*
X177102676Y-115395993D01*
X177105456Y-115420121D01*
X177107985Y-115453727D01*
X177110274Y-115498301D01*
X177112334Y-115555333D01*
X177114179Y-115626311D01*
X177115817Y-115712725D01*
X177117263Y-115816064D01*
X177118526Y-115937818D01*
X177119619Y-116079475D01*
X177120553Y-116242526D01*
X177121340Y-116428458D01*
X177121991Y-116638762D01*
X177122517Y-116874927D01*
X177122931Y-117138442D01*
X177123244Y-117430797D01*
X177123467Y-117753480D01*
X177123612Y-118107981D01*
X177123691Y-118495789D01*
X177123714Y-118918393D01*
X177123715Y-119001414D01*
X177123755Y-119419614D01*
X177123817Y-119803313D01*
X177123854Y-120154009D01*
X177123817Y-120473204D01*
X177123662Y-120762398D01*
X177123339Y-121023091D01*
X177122801Y-121256784D01*
X177122001Y-121464976D01*
X177120892Y-121649168D01*
X177119916Y-121756857D01*
X177119428Y-121810860D01*
G36*
X177119428Y-121810860D02*
G01*
X177117560Y-121951553D01*
X177115241Y-122072746D01*
X177112425Y-122175940D01*
X177109064Y-122262635D01*
X177105110Y-122334332D01*
X177100517Y-122392530D01*
X177095238Y-122438730D01*
X177089225Y-122474433D01*
X177082430Y-122501137D01*
X177074808Y-122520345D01*
X177066309Y-122533555D01*
X177056889Y-122542268D01*
X177046498Y-122547985D01*
X177035090Y-122552206D01*
X177022618Y-122556430D01*
X177009034Y-122562159D01*
X177001391Y-122565030D01*
X176987371Y-122568165D01*
X176966538Y-122571037D01*
X176937421Y-122573659D01*
X176898544Y-122576040D01*
X176848434Y-122578194D01*
X176785617Y-122580130D01*
X176708620Y-122581862D01*
X176615969Y-122583400D01*
X176506190Y-122584756D01*
X176377810Y-122585941D01*
X176229354Y-122586968D01*
X176059350Y-122587846D01*
X175866323Y-122588589D01*
X175648800Y-122589207D01*
X175405308Y-122589713D01*
X175134371Y-122590116D01*
X174834517Y-122590430D01*
X174504273Y-122590665D01*
X174142164Y-122590834D01*
X173746716Y-122590947D01*
X173316456Y-122591016D01*
X173180108Y-122591029D01*
X172759186Y-122591038D01*
X172372647Y-122590985D01*
X172019034Y-122590860D01*
X171696890Y-122590652D01*
X171404761Y-122590351D01*
X171141188Y-122589946D01*
X170904716Y-122589426D01*
X170693890Y-122588782D01*
X170507251Y-122588002D01*
X170343345Y-122587076D01*
X170200715Y-122585993D01*
X170077905Y-122584743D01*
X169973458Y-122583315D01*
X169885919Y-122581698D01*
X169813830Y-122579883D01*
X169755736Y-122577858D01*
X169710180Y-122575613D01*
X169675707Y-122573137D01*
X169650859Y-122570420D01*
X169634181Y-122567451D01*
X169624217Y-122564220D01*
X169621046Y-122562782D01*
X169608067Y-122558058D01*
X169596165Y-122554608D01*
X169585292Y-122550930D01*
X169575398Y-122545521D01*
X169566437Y-122536879D01*
X169558359Y-122523502D01*
X169551116Y-122503886D01*
X169544661Y-122476531D01*
X169538945Y-122439933D01*
X169533919Y-122392590D01*
X169529536Y-122333000D01*
X169525747Y-122259659D01*
X169522504Y-122171067D01*
X169519759Y-122065720D01*
X169517463Y-121942117D01*
X169515568Y-121798754D01*
X169514946Y-121732367D01*
X169993373Y-121732367D01*
X169993898Y-121738725D01*
X170003521Y-121743877D01*
X170025264Y-121747950D01*
X170062148Y-121751070D01*
X170117193Y-121753365D01*
X170193419Y-121754959D01*
X170293848Y-121755979D01*
X170421501Y-121756551D01*
X170579398Y-121756802D01*
X170770559Y-121756857D01*
X171571314Y-121756857D01*
X171503621Y-121634393D01*
X171435929Y-121511929D01*
X171435929Y-117955929D01*
X171503621Y-117833465D01*
X171571314Y-117711000D01*
X170139993Y-117711000D01*
X170134818Y-119593322D01*
X170129643Y-121475643D01*
X170078903Y-121584008D01*
X170052151Y-121637719D01*
X170021860Y-121691524D01*
X169998984Y-121724615D01*
X169998926Y-121724679D01*
X169993373Y-121732367D01*
X169514946Y-121732367D01*
X169514026Y-121634129D01*
X169512789Y-121446740D01*
X169511808Y-121235085D01*
X169511035Y-120997661D01*
X169510422Y-120732966D01*
X169509921Y-120439498D01*
X169509484Y-120115753D01*
X169509061Y-119760230D01*
X169508605Y-119371426D01*
X169508068Y-118947840D01*
X169507999Y-118896560D01*
X169507400Y-118475657D01*
X169506827Y-118089362D01*
X169506323Y-117736172D01*
X169505930Y-117414584D01*
X169505690Y-117123094D01*
X169505646Y-116860200D01*
X169505840Y-116624398D01*
X169506314Y-116414186D01*
X169507112Y-116228060D01*
X169508274Y-116064517D01*
X169509844Y-115922055D01*
X169511864Y-115799170D01*
X169514377Y-115694359D01*
X169517424Y-115606119D01*
X169521049Y-115532947D01*
X169525293Y-115473340D01*
X169530198Y-115425795D01*
X169535808Y-115388808D01*
X169542165Y-115360878D01*
X169549311Y-115340500D01*
X169557288Y-115326171D01*
X169566139Y-115316390D01*
X169575906Y-115309651D01*
X169586632Y-115304454D01*
X169598358Y-115299293D01*
X169611128Y-115292667D01*
X169614865Y-115290556D01*
X169671405Y-115270118D01*
X169733300Y-115261717D01*
X169803072Y-115261720D01*
X169804234Y-115420467D01*
X169804529Y-115438735D01*
X169826706Y-115624427D01*
X169883188Y-115799147D01*
X169973192Y-115961043D01*
X170095932Y-116108265D01*
X170161798Y-116168311D01*
X170308454Y-116267838D01*
X170468470Y-116337242D01*
X170637185Y-116376487D01*
X170809939Y-116385537D01*
X170982072Y-116364353D01*
X171148922Y-116312899D01*
X171286080Y-116241429D01*
X171893127Y-116241429D01*
X171972957Y-116298862D01*
X172040470Y-116352841D01*
X172135603Y-116440886D01*
X172243507Y-116551230D01*
X172360097Y-116679670D01*
X172481285Y-116822000D01*
X172512494Y-116860062D01*
X172565629Y-116925343D01*
X172635083Y-117010988D01*
X172718556Y-117114140D01*
X172813746Y-117231939D01*
X172918354Y-117361528D01*
X173030077Y-117500047D01*
X173146615Y-117644639D01*
X173200067Y-117711000D01*
X173265667Y-117792444D01*
X173384932Y-117940603D01*
X173502109Y-118086260D01*
X173614896Y-118226554D01*
X173720994Y-118358627D01*
X173818101Y-118479621D01*
X173903916Y-118586678D01*
X173976138Y-118676938D01*
X174032466Y-118747543D01*
X174070599Y-118795635D01*
X174088237Y-118818355D01*
X174089692Y-118826893D01*
X174084850Y-118843132D01*
X174072302Y-118868679D01*
X174050797Y-118905347D01*
X174019080Y-118954949D01*
X173975900Y-119019295D01*
X173920005Y-119100198D01*
X173850141Y-119199471D01*
X173765057Y-119318926D01*
X173663499Y-119460374D01*
X173544216Y-119625629D01*
X173405954Y-119816501D01*
X173247462Y-120034804D01*
X173121177Y-120208571D01*
X172967105Y-120420407D01*
X172831580Y-120606440D01*
X172713024Y-120768734D01*
X172609861Y-120909354D01*
X172520515Y-121030365D01*
X172443411Y-121133832D01*
X172376972Y-121221818D01*
X172319623Y-121296390D01*
X172269786Y-121359610D01*
X172225886Y-121413545D01*
X172186347Y-121460258D01*
X172149593Y-121501814D01*
X172114047Y-121540279D01*
X172078135Y-121577715D01*
X172040278Y-121616189D01*
X171900771Y-121756857D01*
X173776357Y-121756933D01*
X173770464Y-121643275D01*
X173770179Y-121637564D01*
X173769060Y-121592127D01*
X173771181Y-121548593D01*
X173777958Y-121504576D01*
X173790812Y-121457693D01*
X173811160Y-121405558D01*
X173840420Y-121345786D01*
X173880012Y-121275994D01*
X173931353Y-121193797D01*
X173995862Y-121096809D01*
X174074957Y-120982647D01*
X174170057Y-120848925D01*
X174282581Y-120693260D01*
X174413946Y-120513265D01*
X174565572Y-120306557D01*
X175100786Y-119577911D01*
X175105501Y-120422755D01*
X175105919Y-120501562D01*
X175106656Y-120713832D01*
X175106321Y-120894381D01*
X175104519Y-121046628D01*
X175100856Y-121173988D01*
X175094936Y-121279878D01*
X175086367Y-121367715D01*
X175074751Y-121440916D01*
X175059697Y-121502898D01*
X175040807Y-121557076D01*
X175017689Y-121606869D01*
X174989947Y-121655693D01*
X174957187Y-121706964D01*
X174924256Y-121756857D01*
X176635704Y-121756857D01*
X176591496Y-121697893D01*
X176584572Y-121688565D01*
X176529221Y-121603070D01*
X176491064Y-121516644D01*
X176466008Y-121417613D01*
X176449959Y-121294304D01*
X176449518Y-121288929D01*
X176447189Y-121238067D01*
X176445087Y-121153206D01*
X176443219Y-121036286D01*
X176441596Y-120889246D01*
X176440227Y-120714026D01*
X176439120Y-120512563D01*
X176438285Y-120286798D01*
X176437732Y-120038669D01*
X176437468Y-119770115D01*
X176437503Y-119483077D01*
X176437847Y-119179492D01*
X176438508Y-118861300D01*
X176439209Y-118575881D01*
X176439958Y-118265196D01*
X176440696Y-117987226D01*
X176441515Y-117740022D01*
X176442507Y-117521637D01*
X176443766Y-117330125D01*
X176445383Y-117163537D01*
X176447452Y-117019925D01*
X176450065Y-116897344D01*
X176453315Y-116793844D01*
X176457293Y-116707479D01*
X176462094Y-116636301D01*
X176467809Y-116578363D01*
X176474532Y-116531717D01*
X176482354Y-116494416D01*
X176491368Y-116464512D01*
X176501667Y-116440058D01*
X176513344Y-116419106D01*
X176526492Y-116399709D01*
X176541202Y-116379920D01*
X176557567Y-116357791D01*
X176573396Y-116335615D01*
X176603991Y-116291769D01*
X176622317Y-116264107D01*
X176622759Y-116262949D01*
X176616360Y-116257718D01*
X176593779Y-116253353D01*
X176552502Y-116249788D01*
X176490017Y-116246954D01*
X176403812Y-116244787D01*
X176291373Y-116243217D01*
X176150188Y-116242179D01*
X175977745Y-116241605D01*
X175771530Y-116241429D01*
X174907060Y-116241429D01*
X174952621Y-116295574D01*
X174979026Y-116332763D01*
X175022978Y-116420446D01*
X175061495Y-116529499D01*
X175090893Y-116650468D01*
X175092766Y-116661952D01*
X175098341Y-116722492D01*
X175102563Y-116816056D01*
X175105443Y-116943292D01*
X175106992Y-117104846D01*
X175107221Y-117301368D01*
X175106143Y-117533504D01*
X175100786Y-118308508D01*
X174547429Y-117608742D01*
X174531579Y-117588698D01*
X174391253Y-117411052D01*
X174271453Y-117258914D01*
X174170270Y-117129698D01*
X174085800Y-117020817D01*
X174016135Y-116929685D01*
X173959368Y-116853714D01*
X173913594Y-116790317D01*
X173876906Y-116736908D01*
X173847396Y-116690901D01*
X173823159Y-116649707D01*
X173802288Y-116610741D01*
X173782877Y-116571415D01*
X173753015Y-116501805D01*
X173733724Y-116428372D01*
X173728592Y-116349165D01*
X173729108Y-116241429D01*
X171893127Y-116241429D01*
X171286080Y-116241429D01*
X171305830Y-116231138D01*
X171448136Y-116119032D01*
X171487695Y-116079510D01*
X171604620Y-115933175D01*
X171687588Y-115774367D01*
X171737043Y-115602063D01*
X171753429Y-115415238D01*
X171753429Y-115261715D01*
X174357830Y-115261714D01*
X174520540Y-115261707D01*
X174870089Y-115261660D01*
X175185856Y-115261626D01*
X175469588Y-115261673D01*
X175723031Y-115261872D01*
X175947931Y-115262291D01*
X176146034Y-115262998D01*
X176319087Y-115264065D01*
X176468835Y-115265558D01*
X176597025Y-115267547D01*
X176705403Y-115270102D01*
X176795715Y-115273291D01*
X176869707Y-115277183D01*
X176929125Y-115281848D01*
X176975716Y-115287354D01*
X177011226Y-115293771D01*
X177037400Y-115301167D01*
X177055986Y-115309611D01*
X177068728Y-115319173D01*
X177077374Y-115329922D01*
X177083670Y-115341926D01*
X177089360Y-115355255D01*
X177096193Y-115369978D01*
X177096316Y-115370218D01*
X177099633Y-115379856D01*
X177102676Y-115395993D01*
X177105456Y-115420121D01*
X177107985Y-115453727D01*
X177110274Y-115498301D01*
X177112334Y-115555333D01*
X177114179Y-115626311D01*
X177115817Y-115712725D01*
X177117263Y-115816064D01*
X177118526Y-115937818D01*
X177119619Y-116079475D01*
X177120553Y-116242526D01*
X177121340Y-116428458D01*
X177121991Y-116638762D01*
X177122517Y-116874927D01*
X177122931Y-117138442D01*
X177123244Y-117430797D01*
X177123467Y-117753480D01*
X177123612Y-118107981D01*
X177123691Y-118495789D01*
X177123714Y-118918393D01*
X177123715Y-119001414D01*
X177123755Y-119419614D01*
X177123817Y-119803313D01*
X177123854Y-120154009D01*
X177123817Y-120473204D01*
X177123662Y-120762398D01*
X177123339Y-121023091D01*
X177122801Y-121256784D01*
X177122001Y-121464976D01*
X177120892Y-121649168D01*
X177119916Y-121756857D01*
X177119428Y-121810860D01*
G37*
%TD*%
M02*
